<?xml version="1.0" encoding="UTF-8" standalone="no"?>
<!-- Generator: Adobe Illustrator 23.0.3, SVG Export Plug-In . SVG Version: 6.00 Build 0)  -->

<svg
    xmlns:dc="http://purl.org/dc/elements/1.1/"
    xmlns:cc="http://creativecommons.org/ns#"
    xmlns:rdf="http://www.w3.org/1999/02/22-rdf-syntax-ns#"
    xmlns="http://www.w3.org/2000/svg"
    xmlns:sodipodi="http://sodipodi.sourceforge.net/DTD/sodipodi-0.dtd"
    xmlns:inkscape="http://www.inkscape.org/namespaces/inkscape"
    version="1.1"
    id="Ebene_1"
    x="0px"
    y="0px"
    viewBox="0 0 240 240"
    style="enable-background:new 0 0 240 240;"
    xml:space="preserve"
    sodipodi:docname="Bahnhof_#d50000_target.svg"
    inkscape:version="0.92.4 (5da689c313, 2019-01-14)"><metadata
   id="metadata165"><rdf:RDF><cc:Work
       rdf:about=""><dc:format>image/svg+xml</dc:format><dc:type
    rdf:resource="http://purl.org/dc/dcmitype/StillImage"/><dc:title/></cc:Work></rdf:RDF></metadata>
    <defs
        id="defs163"/>
    <sodipodi:namedview
        pagecolor="#ffffff"
        bordercolor="#666666"
        borderopacity="1"
        objecttolerance="10"
        gridtolerance="10"
        guidetolerance="10"
        inkscape:pageopacity="0"
        inkscape:pageshadow="2"
        inkscape:window-width="1920"
        inkscape:window-height="1137"
        id="namedview161"
        showgrid="false"
        inkscape:zoom="3.5"
        inkscape:cx="104.17929"
        inkscape:cy="134.71276"
        inkscape:window-x="-8"
        inkscape:window-y="-8"
        inkscape:window-maximized="1"
        inkscape:current-layer="Ebene_1"/>
    <style
        type="text/css"
        id="style2">
	.st0{fill:#D50000;}
	.st1{fill:#E20613;}
	.st2{fill:#FFFFFF;}
	.st3{fill:#585858;}
	.st4{fill:#1D1D1B;}
	.st5{fill:#858B8A;}
	.st6{fill:none;}
</style>
    <g
        id="g1514"
        transform="matrix(1.1053282,0,0,1.2239689,-12.677639,-22.410895)"
        style="stroke-width:0.85974407"><path
     inkscape:connector-curvature="0"
     id="rect957-7"
     d="m 31.722221,50.310733 v 16.48909 h 18.113142 v -16.48909 z m 0,16.48909 H 14.571429 v 16.678786 h 17.150792 z"
     style="opacity:1;fill:#000000;fill-opacity:0.50196078;stroke-width:0.85974395" />
        <path
            inkscape:connector-curvature="0"
            id="rect957-9-4"
            d="m 66.986155,50.310733 v 16.48909 h 18.113142 v -16.48909 z m 0,16.48909 H 49.835363 v 16.678786 h 17.150792 z"
            style="opacity:1;fill:#000000;fill-opacity:0.50196078;stroke-width:0.85974395"/>
        <path
            id="rect957-7-1"
            d="m 102.25009,50.310733 v 16.48909 h 18.11314 v -16.48909 z m 0,16.48909 H 85.099297 v 16.678784 h 17.150793 z"
            style="opacity:1;fill:#000000;fill-opacity:0.50196078;stroke-width:0.85974395"
            inkscape:connector-curvature="0"/>
        <path
            id="rect957-9-4-6"
            d="m 137.51402,50.310733 v 16.48909 h 18.11315 v -16.48909 z m 0,16.48909 h -17.15079 v 16.678784 h 17.15079 z"
            style="opacity:1;fill:#000000;fill-opacity:0.50196078;stroke-width:0.85974395"
            inkscape:connector-curvature="0"/>
        <path
            id="rect957-7-1-5"
            d="m 172.77795,50.310733 v 16.48909 h 18.11314 v -16.48909 z m 0,16.48909 h -17.15078 v 16.678784 h 17.15078 z"
            style="opacity:1;fill:#000000;fill-opacity:0.50196078;stroke-width:0.85974395"
            inkscape:connector-curvature="0"/>
        <path
            id="rect957-9-4-6-8"
            d="m 208.04189,50.310733 v 16.48909 h 18.11313 v -16.48909 z m 0,16.48909 h -17.1508 v 16.678784 h 17.1508 z"
            style="opacity:1;fill:#000000;fill-opacity:0.50196078;stroke-width:0.85974395"
            inkscape:connector-curvature="0"/>
        <path
            inkscape:connector-curvature="0"
            id="rect957-4"
            d="M 31.722221,83.478607 V 99.969504 H 49.835363 V 83.478607 Z m 0,16.490897 H 14.571429 v 16.676986 h 17.150792 z"
            style="opacity:1;fill:#000000;fill-opacity:0.50196078;stroke-width:0.85974395"/>
        <path
            inkscape:connector-curvature="0"
            id="rect957-9-2"
            d="M 66.986155,83.478607 V 99.969504 H 85.099297 V 83.478607 Z m 0,16.490897 H 49.835363 v 16.676986 h 17.150792 z"
            style="opacity:1;fill:#000000;fill-opacity:0.50196078;stroke-width:0.85974395"/>
        <path
            inkscape:connector-curvature="0"
            id="rect957-7-7"
            d="m 31.722221,116.64649 v 16.48909 h 18.113142 v -16.48909 z m 0,16.48909 H 14.571429 v 16.67878 h 17.150792 z"
            style="opacity:1;fill:#000000;fill-opacity:0.50196078;stroke-width:0.85974395"/>
        <path
            inkscape:connector-curvature="0"
            id="rect957-9-4-7"
            d="m 66.986155,116.64649 v 16.48909 h 18.113142 v -16.48909 z m 0,16.48909 H 49.835363 v 16.67878 h 17.150792 z"
            style="opacity:1;fill:#000000;fill-opacity:0.50196078;stroke-width:0.85974395"/>
        <path
            id="rect957-5-7"
            d="m 102.25009,83.478607 v 16.490897 h 18.11314 V 83.478607 Z m 0,16.490897 H 85.099297 v 16.676986 h 17.150793 z"
            style="opacity:1;fill:#000000;fill-opacity:0.50196078;stroke-width:0.85974395"
            inkscape:connector-curvature="0"/>
        <path
            id="rect957-9-6-8"
            d="m 137.51402,83.478607 v 16.490897 h 18.11315 V 83.478607 Z m 0,16.490897 h -17.15079 v 16.676986 h 17.15079 z"
            style="opacity:1;fill:#000000;fill-opacity:0.50196078;stroke-width:0.85974395"
            inkscape:connector-curvature="0"/>
        <path
            id="rect957-7-1-1"
            d="m 102.25009,116.64649 v 16.48909 h 18.11314 v -16.48909 z m 0,16.48909 H 85.099297 v 16.67878 h 17.150793 z"
            style="opacity:1;fill:#000000;fill-opacity:0.50196078;stroke-width:0.85974395"
            inkscape:connector-curvature="0"/>
        <path
            id="rect957-9-4-6-4"
            d="m 137.51402,116.64649 v 16.48909 h 18.11315 v -16.48909 z m 0,16.48909 h -17.15079 v 16.67878 h 17.15079 z"
            style="opacity:1;fill:#000000;fill-opacity:0.50196078;stroke-width:0.85974395"
            inkscape:connector-curvature="0"/>
        <path
            id="rect957-5-3-3"
            d="m 172.77795,83.478607 v 16.490897 h 18.11314 V 83.478607 Z m 0,16.490897 h -17.15078 v 16.676986 h 17.15078 z"
            style="opacity:1;fill:#000000;fill-opacity:0.50196078;stroke-width:0.85974395"
            inkscape:connector-curvature="0"/>
        <path
            id="rect957-9-6-3-3"
            d="m 208.04189,83.478607 v 16.490897 h 18.11313 V 83.478607 Z m 0,16.490897 h -17.1508 v 16.676986 h 17.1508 z"
            style="opacity:1;fill:#000000;fill-opacity:0.50196078;stroke-width:0.85974395"
            inkscape:connector-curvature="0"/>
        <path
            id="rect957-7-1-5-6"
            d="m 172.77795,116.64649 v 16.48909 h 18.11314 v -16.48909 z m 0,16.48909 h -17.15078 v 16.67878 h 17.15078 z"
            style="opacity:1;fill:#000000;fill-opacity:0.50196078;stroke-width:0.85974395"
            inkscape:connector-curvature="0"/>
        <path
            id="rect957-9-4-6-8-2"
            d="m 208.04189,116.64649 v 16.48909 h 18.11313 v -16.48909 z m 0,16.48909 h -17.1508 v 16.67878 h 17.1508 z"
            style="opacity:1;fill:#000000;fill-opacity:0.50196078;stroke-width:0.85974395"
            inkscape:connector-curvature="0"/></g>


    <g
        id="g158">
	<rect
        class="st6"
        width="240"
        height="240"
        id="rect156"/>
</g>
    <path
        style="fill:#ea0001;fill-opacity:1;stroke-width:0.99999994"
        d="m 29.481468,177.7857 c -11.321115,0 -20.4346046,10.14868 -20.4346046,22.75573 v 0.70256 c 0,12.60705 9.1134896,22.75572 20.4346046,22.75572 H 206.84887 c 11.32112,0 20.43462,-10.14867 20.43462,-22.75572 v -0.70256 c 0,-12.60705 -9.1135,-22.75573 -20.43462,-22.75573 z m 1.901345,8.12876 c 3.446266,0 5.853226,1.47185 7.217789,4.41686 0.61754,1.34358 0.951474,3.00612 1.001276,4.98756 h -2.779884 c -0.159365,-1.81858 -0.578061,-3.2031 -1.255361,-4.1531 -0.906388,-1.27572 -2.309394,-1.9135 -4.211813,-1.9135 -1.374522,0 -2.47131,0.33251 -3.288056,0.99751 -1.085673,0.88215 -1.627878,2.19857 -1.627878,3.94928 0,1.425 0.38802,2.44177 1.164923,3.05249 0.776904,0.61071 2.36477,1.26211 4.765206,1.95426 1.474124,0.43428 2.609661,0.83488 3.406486,1.20132 0.806785,0.36644 1.495104,0.79429 2.062841,1.28285 1.743055,1.53358 2.614079,3.63761 2.614079,6.31118 0,2.80929 -0.81694,5.07677 -2.45043,6.80034 -1.414364,1.50643 -3.436263,2.25878 -6.065785,2.25878 -2.838688,0 -5.050562,-0.9158 -6.634251,-2.74795 -1.57373,-1.8457 -2.370218,-4.43769 -2.390139,-7.77626 h 2.794955 c 0.02987,1.92714 0.392337,3.43185 1.089559,4.51758 1.135475,1.77785 2.918427,2.66881 5.348744,2.66881 1.782895,0 3.128855,-0.50957 4.035243,-1.52744 0.906388,-1.01786 1.358719,-2.32066 1.358719,-3.90851 0,-0.99072 -0.174636,-1.80556 -0.523246,-2.44342 -0.348612,-0.63787 -0.934677,-1.20753 -1.761383,-1.70968 -0.637459,-0.39358 -1.978308,-0.91677 -4.02017,-1.56821 -1.972141,-0.62427 -3.218002,-1.04413 -3.735938,-1.26127 -0.517936,-0.23071 -1.044803,-0.57124 -1.58266,-1.01909 -1.504006,-1.235 -2.256636,-3.18119 -2.256636,-5.84119 0,-2.63287 0.693431,-4.70965 2.077914,-6.22965 1.384484,-1.53357 3.265382,-2.29955 5.645896,-2.29955 z m 72.313437,0 c 2.998,0 5.35892,1.26194 7.08203,3.78623 1.16534,1.73714 1.82082,3.67771 1.97022,5.82201 h -2.89827 c -0.32868,-1.96787 -1.04553,-3.50221 -2.1511,-4.6015 -1.09561,-1.11286 -2.45474,-1.66892 -4.07826,-1.66892 -2.60955,0 -4.57223,1.44463 -5.886987,4.33534 -0.996004,2.19857 -1.494339,4.83141 -1.494339,7.89856 0,3.25714 0.518786,5.97171 1.554632,8.14314 1.314758,2.72786 3.256964,4.09315 5.826694,4.09315 1.8526,0 3.32718,-0.73313 4.42278,-2.19883 1.10558,-1.47929 1.7764,-3.60495 2.01545,-6.37353 h 2.87027 c -0.18924,3.01286 -0.89289,5.54475 -2.10802,7.59403 -1.72312,2.87715 -4.17175,4.31615 -7.34905,4.31615 -3.36655,0 -5.966387,-1.62169 -7.799064,-4.86526 -1.553795,-2.76858 -2.331988,-6.32523 -2.331988,-10.66809 0,-4.66857 0.996679,-8.49524 2.988727,-11.48096 1.832676,-2.75501 4.288585,-4.13152 7.366275,-4.13152 z m 98.30774,0 c 3.44628,0 5.85108,1.47185 7.21563,4.41686 0.61756,1.34358 0.95148,3.00612 1.00128,4.98756 h -2.77988 c -0.15936,-1.81858 -0.5759,-3.2031 -1.25321,-4.1531 -0.90639,-1.27572 -2.31154,-1.9135 -4.21395,-1.9135 -1.37453,0 -2.47133,0.33251 -3.28807,0.99751 -1.08566,0.88215 -1.62787,2.19857 -1.62787,3.94928 0,1.425 0.38801,2.44177 1.16491,3.05249 0.77692,0.61071 2.36693,1.26211 4.76737,1.95426 1.47412,0.43428 2.60966,0.83488 3.40648,1.20132 0.80679,0.36644 1.49296,0.79429 2.0607,1.28285 1.74305,1.53358 2.61407,3.63761 2.61407,6.31118 0,2.80929 -0.81479,5.07677 -2.44827,6.80034 -1.41437,1.50643 -3.43627,2.25878 -6.0658,2.25878 -2.83868,0 -5.05055,-0.9158 -6.63425,-2.74795 -1.57372,-1.8457 -2.37022,-4.43769 -2.39012,-7.77626 h 2.79279 c 0.0298,1.92714 0.39449,3.43185 1.09171,4.51758 1.13548,1.77785 2.91842,2.66881 5.34875,2.66881 1.7829,0 3.1267,-0.50957 4.03308,-1.52744 0.9064,-1.01786 1.35873,-2.32066 1.35873,-3.90851 0,-0.99072 -0.17249,-1.80556 -0.52111,-2.44342 -0.3486,-0.63787 -0.93682,-1.20753 -1.76353,-1.70968 -0.63745,-0.39358 -1.9783,-0.91677 -4.02017,-1.56821 -1.97213,-0.62427 -3.21585,-1.04413 -3.73378,-1.26127 -0.51793,-0.23071 -1.04696,-0.57124 -1.58482,-1.01909 -1.50399,-1.235 -2.25448,-3.18119 -2.25448,-5.84119 0,-2.63287 0.69128,-4.70965 2.07576,-6.22965 1.38448,-1.53357 3.26754,-2.29955 5.64805,-2.29955 z m -158.069717,0.69058 h 8.785375 c 2.131507,0 3.683585,0.33251 4.659695,0.99751 0.896428,0.61072 1.605197,1.49928 2.123132,2.66643 0.527897,1.15357 0.790254,2.4179 0.790254,3.78862 0,1.45215 -0.287921,2.74132 -0.865618,3.86775 -0.567739,1.12643 -1.354003,1.9525 -2.359992,2.48179 0.816744,0.29857 1.448823,0.65832 1.897037,1.07904 1.533888,1.41144 2.299702,3.46898 2.299702,6.1697 0,3.54214 -1.069072,6.08524 -3.210539,7.6324 -1.005991,0.71927 -2.3315,1.07903 -3.974952,1.07903 H 43.934273 Z m 20.975084,0 h 8.785377 c 2.131506,0 3.685735,0.33251 4.661846,0.99751 0.896429,0.61072 1.603044,1.49928 2.120981,2.66643 0.527897,1.15357 0.792407,2.4179 0.792407,3.78862 0,1.45215 -0.287921,2.74132 -0.865619,3.86775 -0.567738,1.12643 -1.356155,1.9525 -2.362147,2.48179 0.816746,0.29857 1.448824,0.65832 1.897038,1.07904 1.533888,1.41144 2.301854,3.46898 2.301854,6.1697 0,3.54214 -1.071223,6.08524 -3.212689,7.6324 -1.005992,0.71927 -2.329349,1.07903 -3.972799,1.07903 H 64.909357 Z m 51.635323,0 h 14.35807 v 3.42175 h -11.47482 v 9.40442 h 10.09886 v 3.17477 h -10.09886 v 13.76133 h -2.88325 z m 17.5686,0 h 14.35806 v 3.42175 h -11.47266 v 9.40442 h 10.09887 v 3.17477 h -10.09887 v 13.76133 h -2.8854 z m 26.05683,0 h 14.35805 v 3.42175 h -11.47482 v 9.40442 h 10.10103 v 3.17477 h -10.10103 v 13.76133 h -2.88323 z m 17.57074,0 h 14.35806 v 3.42175 H 180.6241 v 9.40442 h 10.09887 v 3.17477 H 180.6241 v 13.76133 h -2.88325 z m -130.923337,3.42175 v 9.26054 h 5.198014 c 1.424325,0 2.477251,-0.12819 3.154552,-0.38604 0.677301,-0.27144 1.214393,-0.79464 1.612806,-1.5682 0.408373,-0.77358 0.611531,-1.67577 0.611531,-2.7072 0,-1.03142 -0.174636,-1.91198 -0.523247,-2.64484 -0.34861,-0.73285 -0.834576,-1.25605 -1.462076,-1.5682 -0.527896,-0.25787 -1.565486,-0.38606 -3.109334,-0.38606 z m 20.977238,0 v 9.26054 h 5.198013 c 1.424324,0 2.475099,-0.12819 3.1524,-0.38604 0.6773,-0.27144 1.214393,-0.79464 1.612806,-1.5682 0.408372,-0.77358 0.613683,-1.67577 0.613683,-2.7072 0,-1.03142 -0.174635,-1.91198 -0.523246,-2.64484 -0.34861,-0.73285 -0.836729,-1.25605 -1.464229,-1.5682 -0.527897,-0.25787 -1.563332,-0.38606 -3.107181,-0.38606 z M 46.817513,202.4645 v 10.48346 h 5.766479 c 1.992062,1e-5 3.332909,-0.23716 4.020171,-0.71216 1.175316,-0.81428 1.761382,-2.29417 1.761382,-4.43845 0,-2.41571 -0.791377,-4.02939 -2.375067,-4.84368 -0.617539,-0.32571 -1.912372,-0.48917 -3.884513,-0.48917 z m 20.977238,0 v 10.48346 h 5.766479 c 1.992062,1e-5 3.330757,-0.23716 4.018017,-0.71216 1.175317,-0.81428 1.763536,-2.29417 1.763536,-4.43845 0,-2.41571 -0.791377,-4.02939 -2.375067,-4.84368 -0.617538,-0.32571 -1.912372,-0.48917 -3.884514,-0.48917 z"
        id="rect972"
        inkscape:connector-curvature="0"/></svg>
