<?xml version="1.0" encoding="UTF-8" standalone="no"?>
<!-- Generator: Adobe Illustrator 23.0.3, SVG Export Plug-In . SVG Version: 6.00 Build 0)  -->

<svg
   xmlns:dc="http://purl.org/dc/elements/1.1/"
   xmlns:cc="http://creativecommons.org/ns#"
   xmlns:rdf="http://www.w3.org/1999/02/22-rdf-syntax-ns#"
   xmlns:svg="http://www.w3.org/2000/svg"
   xmlns="http://www.w3.org/2000/svg"
   xmlns:sodipodi="http://sodipodi.sourceforge.net/DTD/sodipodi-0.dtd"
   xmlns:inkscape="http://www.inkscape.org/namespaces/inkscape"
   version="1.1"
   id="Ebene_1"
   x="0px"
   y="0px"
   viewBox="0 0 240 240"
   style="enable-background:new 0 0 240 240;"
   xml:space="preserve"
   sodipodi:docname="Bahnhof_#d50000_target.svg"
   inkscape:version="0.92.4 (5da689c313, 2019-01-14)"><metadata
   id="metadata53"><rdf:RDF><cc:Work
       rdf:about=""><dc:format>image/svg+xml</dc:format><dc:type
         rdf:resource="http://purl.org/dc/dcmitype/StillImage" /><dc:title></dc:title></cc:Work></rdf:RDF></metadata><defs
   id="defs51">
	
	
	
	
	
	

	
	
	
	
	
	
</defs><sodipodi:namedview
   pagecolor="#ffffff"
   bordercolor="#666666"
   borderopacity="1"
   objecttolerance="10"
   gridtolerance="10"
   guidetolerance="10"
   inkscape:pageopacity="0"
   inkscape:pageshadow="2"
   inkscape:window-width="1920"
   inkscape:window-height="1137"
   id="namedview49"
   showgrid="false"
   inkscape:zoom="2.7812867"
   inkscape:cx="130.7765"
   inkscape:cy="102.78363"
   inkscape:window-x="-8"
   inkscape:window-y="-8"
   inkscape:window-maximized="1"
   inkscape:current-layer="Ebene_1" />
<style
   type="text/css"
   id="style2">
	.st0{fill:none;}
	.st1{fill:#978679;}
	.st2{fill:#3D3D3D;}
</style>
<g
   id="g6">
	<rect
   class="st0"
   width="240"
   height="240"
   id="rect4" />
</g>




<rect
   style="opacity:1;fill:#000000;fill-opacity:0.50196078"
   id="rect1061"
   width="240"
   height="240"
   x="0"
   y="0" /><rect
   style="opacity:1;fill:#ffffff;fill-opacity:1;stroke-width:0.99999994"
   id="rect1078"
   width="198.4693"
   height="35.235489"
   x="20.089571"
   y="193.61858" /><path
   style="fill:#ea0001;fill-opacity:1;stroke-width:0.99999994"
   d="m 30.280961,187.76979 c -11.32112,0 -20.43461,10.14868 -20.43461,22.75573 v 0.70256 c 0,12.60705 9.11349,22.75572 20.43461,22.75572 H 207.64836 c 11.32112,0 20.43462,-10.14867 20.43462,-22.75572 v -0.70256 c 0,-12.60705 -9.1135,-22.75573 -20.43462,-22.75573 z m 1.90134,8.12876 c 3.44627,0 5.85323,1.47185 7.21779,4.41686 0.61754,1.34358 0.95148,3.00612 1.00128,4.98756 h -2.77989 c -0.15936,-1.81858 -0.57806,-3.2031 -1.25536,-4.1531 -0.90638,-1.27572 -2.30939,-1.9135 -4.21181,-1.9135 -1.37452,0 -2.47131,0.33251 -3.28806,0.99751 -1.08567,0.88215 -1.62787,2.19857 -1.62787,3.94928 0,1.425 0.38802,2.44177 1.16492,3.05249 0.7769,0.61071 2.36477,1.26211 4.76521,1.95426 1.47412,0.43428 2.60966,0.83488 3.40648,1.20132 0.80679,0.36644 1.49511,0.79429 2.06284,1.28285 1.74306,1.53358 2.61408,3.63761 2.61408,6.31118 0,2.80929 -0.81694,5.07677 -2.45043,6.80034 -1.41436,1.50643 -3.43626,2.25878 -6.06578,2.25878 -2.83869,0 -5.05057,-0.9158 -6.63425,-2.74795 -1.57373,-1.8457 -2.37022,-4.43769 -2.39014,-7.77626 h 2.79495 c 0.0299,1.92714 0.39234,3.43185 1.08956,4.51758 1.13548,1.77785 2.91843,2.66881 5.34874,2.66881 1.7829,0 3.12886,-0.50957 4.03525,-1.52744 0.90639,-1.01786 1.35872,-2.32066 1.35872,-3.90851 0,-0.99072 -0.17464,-1.80556 -0.52325,-2.44342 -0.34861,-0.63787 -0.93468,-1.20753 -1.76138,-1.70968 -0.63746,-0.39358 -1.97831,-0.91677 -4.02017,-1.56821 -1.97214,-0.62427 -3.218,-1.04413 -3.73594,-1.26127 -0.51794,-0.23071 -1.0448,-0.57124 -1.58266,-1.01909 -1.50401,-1.235 -2.25664,-3.18119 -2.25664,-5.84119 0,-2.63287 0.69343,-4.70965 2.07792,-6.22965 1.38448,-1.53357 3.26538,-2.29955 5.64589,-2.29955 z m 72.313429,0 c 2.998,0 5.35892,1.26194 7.08203,3.78623 1.16534,1.73714 1.82082,3.67771 1.97022,5.82201 h -2.89827 c -0.32868,-1.96787 -1.04553,-3.50221 -2.1511,-4.6015 -1.09561,-1.11286 -2.45474,-1.66892 -4.07826,-1.66892 -2.60955,0 -4.57223,1.44463 -5.88699,4.33534 -0.996,2.19857 -1.49433,4.83141 -1.49433,7.89856 0,3.25714 0.51878,5.97171 1.55462,8.14314 1.31476,2.72786 3.25697,4.09315 5.8267,4.09315 1.8526,0 3.32718,-0.73313 4.42278,-2.19883 1.10559,-1.47929 1.7764,-3.60495 2.01545,-6.37353 h 2.87027 c -0.18924,3.01286 -0.89289,5.54475 -2.10802,7.59403 -1.72312,2.87715 -4.17175,4.31615 -7.34905,4.31615 -3.36655,0 -5.96639,-1.62169 -7.79906,-4.86526 -1.553792,-2.76858 -2.331982,-6.32523 -2.331982,-10.66809 0,-4.66857 0.99668,-8.49524 2.988722,-11.48096 1.83267,-2.75501 4.28858,-4.13152 7.36627,-4.13152 z m 98.30775,0 c 3.44628,0 5.85108,1.47185 7.21563,4.41686 0.61756,1.34358 0.95148,3.00612 1.00128,4.98756 h -2.77988 c -0.15936,-1.81858 -0.5759,-3.2031 -1.25321,-4.1531 -0.90639,-1.27572 -2.31154,-1.9135 -4.21395,-1.9135 -1.37453,0 -2.47133,0.33251 -3.28807,0.99751 -1.08566,0.88215 -1.62787,2.19857 -1.62787,3.94928 0,1.425 0.38801,2.44177 1.16491,3.05249 0.77692,0.61071 2.36693,1.26211 4.76737,1.95426 1.47412,0.43428 2.60966,0.83488 3.40648,1.20132 0.80679,0.36644 1.49296,0.79429 2.0607,1.28285 1.74305,1.53358 2.61407,3.63761 2.61407,6.31118 0,2.80929 -0.81479,5.07677 -2.44827,6.80034 -1.41437,1.50643 -3.43627,2.25878 -6.0658,2.25878 -2.83868,0 -5.05055,-0.9158 -6.63425,-2.74795 -1.57372,-1.8457 -2.37022,-4.43769 -2.39012,-7.77626 h 2.79279 c 0.0298,1.92714 0.39449,3.43185 1.09171,4.51758 1.13548,1.77785 2.91842,2.66881 5.34875,2.66881 1.7829,0 3.1267,-0.50957 4.03308,-1.52744 0.9064,-1.01786 1.35873,-2.32066 1.35873,-3.90851 0,-0.99072 -0.17249,-1.80556 -0.52111,-2.44342 -0.3486,-0.63787 -0.93682,-1.20753 -1.76353,-1.70968 -0.63745,-0.39358 -1.9783,-0.91677 -4.02017,-1.56821 -1.97213,-0.62427 -3.21585,-1.04413 -3.73378,-1.26127 -0.51793,-0.23071 -1.04696,-0.57124 -1.58482,-1.01909 -1.50399,-1.235 -2.25448,-3.18119 -2.25448,-5.84119 0,-2.63287 0.69128,-4.70965 2.07576,-6.22965 1.38448,-1.53357 3.26754,-2.29955 5.64805,-2.29955 z m -158.069719,0.69058 h 8.78538 c 2.13151,0 3.68358,0.33251 4.65969,0.99751 0.89643,0.61072 1.6052,1.49928 2.123137,2.66643 0.52789,1.15357 0.79025,2.4179 0.79025,3.78862 0,1.45215 -0.28792,2.74132 -0.86562,3.86775 -0.567737,1.12643 -1.353997,1.9525 -2.359987,2.48179 0.81674,0.29857 1.44882,0.65832 1.89704,1.07904 1.533877,1.41144 2.299697,3.46898 2.299697,6.1697 0,3.54214 -1.06907,6.08524 -3.210537,7.6324 -1.00599,0.71927 -2.3315,1.07903 -3.97495,1.07903 h -10.1441 z m 20.975087,0 h 8.78537 c 2.13151,0 3.68574,0.33251 4.66185,0.99751 0.89643,0.61072 1.60304,1.49928 2.12098,2.66643 0.5279,1.15357 0.79241,2.4179 0.79241,3.78862 0,1.45215 -0.28792,2.74132 -0.86562,3.86775 -0.56774,1.12643 -1.35616,1.9525 -2.36215,2.48179 0.81675,0.29857 1.44883,0.65832 1.89704,1.07904 1.53389,1.41144 2.30185,3.46898 2.30185,6.1697 0,3.54214 -1.07122,6.08524 -3.21268,7.6324 -1.006,0.71927 -2.32935,1.07903 -3.9728,1.07903 h -10.14625 z m 51.635312,0 h 14.35807 v 3.42175 h -11.47481 v 9.40442 h 10.09886 v 3.17477 h -10.09886 v 13.76133 h -2.88326 z m 17.56861,0 h 14.35805 v 3.42175 h -11.47266 v 9.40442 h 10.09887 v 3.17477 h -10.09887 v 13.76133 h -2.8854 z m 26.05683,0 h 14.35805 v 3.42175 h -11.47482 v 9.40442 h 10.10103 v 3.17477 h -10.10103 v 13.76133 h -2.88323 z m 17.57074,0 h 14.35806 v 3.42175 h -11.47481 v 9.40442 h 10.09887 v 3.17477 h -10.09887 v 13.76133 h -2.88325 z m -130.923339,3.42175 v 9.26054 h 5.19802 c 1.42432,0 2.47725,-0.12819 3.15455,-0.38604 0.6773,-0.27144 1.21439,-0.79464 1.61281,-1.5682 0.40837,-0.77358 0.61153,-1.67577 0.61153,-2.7072 0,-1.03142 -0.17464,-1.91198 -0.52325,-2.64484 -0.34861,-0.73285 -0.83458,-1.25605 -1.46208,-1.5682 -0.52789,-0.25787 -1.56548,-0.38606 -3.10933,-0.38606 z m 20.977237,0 v 9.26054 h 5.19801 c 1.42433,0 2.4751,-0.12819 3.1524,-0.38604 0.6773,-0.27144 1.2144,-0.79464 1.61281,-1.5682 0.40837,-0.77358 0.61368,-1.67577 0.61368,-2.7072 0,-1.03142 -0.17463,-1.91198 -0.52324,-2.64484 -0.34861,-0.73285 -0.83673,-1.25605 -1.46423,-1.5682 -0.5279,-0.25787 -1.56333,-0.38606 -3.10718,-0.38606 z m -20.977237,12.43771 v 10.48346 h 5.76648 c 1.99206,1e-5 3.33291,-0.23716 4.02017,-0.71216 1.17532,-0.81428 1.76139,-2.29417 1.76139,-4.43845 0,-2.41571 -0.79138,-4.02939 -2.37507,-4.84368 -0.61754,-0.32571 -1.91237,-0.48917 -3.88451,-0.48917 z m 20.977237,0 v 10.48346 h 5.76648 c 1.99206,1e-5 3.33076,-0.23716 4.01802,-0.71216 1.17531,-0.81428 1.76353,-2.29417 1.76353,-4.43845 0,-2.41571 -0.79137,-4.02939 -2.37506,-4.84368 -0.61754,-0.32571 -1.91238,-0.48917 -3.88452,-0.48917 z"
   id="rect972"
   inkscape:connector-curvature="0" /></svg>