<?xml version="1.0" encoding="utf-8"?>
<!-- Generator: Adobe Illustrator 23.0.3, SVG Export Plug-In . SVG Version: 6.00 Build 0)  -->
<svg version="1.1" id="Ebene_1" xmlns="http://www.w3.org/2000/svg" xmlns:xlink="http://www.w3.org/1999/xlink" x="0px" y="0px"
	 viewBox="0 0 240 240" style="enable-background:new 0 0 240 240;" xml:space="preserve">
<style type="text/css">
	.st0{fill:#978679;}
	.st1{fill:#3D3D3D;}
	.st2{fill:none;}
</style>
<g>
	<g>
		<rect x="111.72" y="232.85" class="st0" width="16.56" height="3.29"/>
		<rect x="111.72" y="221.83" class="st0" width="16.56" height="3.29"/>
		<rect x="111.72" y="210.81" class="st0" width="16.56" height="3.29"/>
		<rect x="111.72" y="199.8" class="st0" width="16.56" height="3.29"/>
		<rect x="111.72" y="188.78" class="st0" width="16.56" height="3.29"/>
		<rect x="111.72" y="177.76" class="st0" width="16.56" height="3.29"/>
		<rect x="111.72" y="166.75" class="st0" width="16.56" height="3.29"/>
		<rect x="111.72" y="155.73" class="st0" width="16.56" height="3.29"/>
		<rect x="111.72" y="144.71" class="st0" width="16.56" height="3.29"/>
		<rect x="111.72" y="134.12" class="st0" width="16.56" height="3.29"/>
		<rect x="111.72" y="123.86" class="st0" width="16.56" height="3.29"/>
	</g>
	<g>
		<rect x="123.48" y="120.01" class="st1" width="1.33" height="119.99"/>
		<rect x="115.19" y="120.01" class="st1" width="1.33" height="119.99"/>
	</g>
</g>
<g>
	<g>
		<rect x="111.74" y="112.84" class="st0" width="16.56" height="3.29"/>
		<rect x="111.74" y="101.83" class="st0" width="16.56" height="3.29"/>
		<rect x="111.74" y="90.81" class="st0" width="16.56" height="3.29"/>
		<rect x="111.74" y="79.79" class="st0" width="16.56" height="3.29"/>
		<rect x="111.74" y="68.78" class="st0" width="16.56" height="3.29"/>
		<rect x="111.74" y="57.76" class="st0" width="16.56" height="3.29"/>
		<rect x="111.74" y="46.74" class="st0" width="16.56" height="3.29"/>
		<rect x="111.74" y="35.73" class="st0" width="16.56" height="3.29"/>
		<rect x="111.74" y="24.71" class="st0" width="16.56" height="3.29"/>
		<rect x="111.74" y="14.11" class="st0" width="16.56" height="3.29"/>
		<rect x="111.74" y="3.85" class="st0" width="16.56" height="3.29"/>
	</g>
	<g>
		<rect x="123.5" y="0" class="st1" width="1.33" height="119.99"/>
		<rect x="115.22" y="0" class="st1" width="1.33" height="119.99"/>
	</g>
</g>
<g>
	<rect class="st2" width="240" height="240"/>
</g>
</svg>
