<?xml version="1.0" encoding="utf-8"?>
<!-- Generator: Adobe Illustrator 23.0.3, SVG Export Plug-In . SVG Version: 6.00 Build 0)  -->
<svg version="1.1" id="Ebene_1" xmlns="http://www.w3.org/2000/svg" xmlns:xlink="http://www.w3.org/1999/xlink" x="0px" y="0px"
	 viewBox="0 0 240 240" style="enable-background:new 0 0 240 240;" xml:space="preserve">
<style type="text/css">
	.st0{fill:#978679;}
	.st1{fill:#3D3D3D;}
	.st2{fill:none;}
</style>
<g>
	<g>
		<path class="st0" d="M157.99,79.6l-11.54,11.57c0.76,0.78,1.53,1.55,2.31,2.31l11.54-11.57C159.52,81.15,158.75,80.38,157.99,79.6
			z"/>
		<path class="st0" d="M135.52,44.76l-15.08,6.26c0.4,1.01,0.82,2.02,1.25,3.02l15.08-6.26C136.33,46.78,135.92,45.77,135.52,44.76z
			"/>
		<path class="st0" d="M192.03,103.2l-6.24,15.12c1,0.43,2,0.85,3.01,1.25l6.24-15.12C194.03,104.06,193.02,103.64,192.03,103.2z"/>
		<path class="st0" d="M129.8,24.71l-16,3.19c0.2,1.07,0.41,2.14,0.63,3.21l16-3.19C130.2,26.86,129.99,25.79,129.8,24.71z"/>
		<path class="st0" d="M173.85,93.08l-9.06,13.61c0.9,0.62,1.8,1.23,2.71,1.82l9.06-13.61C175.65,94.31,174.75,93.7,173.85,93.08z"
			/>
		<path class="st0" d="M145.05,63.29l-13.57,9.09c0.59,0.91,1.2,1.82,1.81,2.72l13.56-9.09C146.24,65.11,145.64,64.2,145.05,63.29z"
			/>
		<path class="st0" d="M211.83,109.56l-3.18,16.05c1.06,0.23,2.13,0.44,3.2,0.63l3.18-16.05C213.95,110,212.89,109.79,211.83,109.56
			z"/>
		<path class="st0" d="M128.44,14.36l-16.24,1.6c0.09,1.09,0.2,2.18,0.32,3.26l16.24-1.6C128.64,16.54,128.53,15.45,128.44,14.36z"
			/>
		<path class="st0" d="M165.59,86.73l-10.35,12.65c0.83,0.7,1.67,1.39,2.52,2.08l10.35-12.65
			C167.26,88.12,166.42,87.43,165.59,86.73z"/>
		<path class="st0" d="M139.83,54.26l-14.39,7.71c0.5,0.97,1.01,1.93,1.54,2.88l14.39-7.71C140.84,56.19,140.33,55.23,139.83,54.26z
			"/>
		<path class="st0" d="M201.77,106.87l-4.74,15.66c1.03,0.33,2.08,0.65,3.12,0.95l4.74-15.66
			C203.84,107.52,202.8,107.21,201.77,106.87z"/>
		<path class="st0" d="M132.16,34.88l-15.61,4.75c0.3,1.05,0.62,2.09,0.95,3.13l15.62-4.75C132.78,36.97,132.46,35.93,132.16,34.88z
			"/>
		<path class="st0" d="M182.69,98.59L175,113.02c0.95,0.53,1.91,1.04,2.88,1.55l7.69-14.43C184.6,99.63,183.64,99.12,182.69,98.59z"
			/>
		<path class="st0" d="M151.12,71.76l-12.61,10.38c0.68,0.85,1.37,1.7,2.07,2.53l12.61-10.38C152.49,73.46,151.8,72.61,151.12,71.76
			z"/>
		<path class="st0" d="M222.1,111.24l-1.6,16.28c1.08,0.12,2.16,0.22,3.25,0.32l1.6-16.28C224.26,111.46,223.18,111.36,222.1,111.24
			z"/>
		<path class="st0" d="M128.05,5.5c0-0.55,0.01-1.09,0.01-1.64h-16.32c-0.01,0.54-0.01,1.09-0.01,1.64c0,0.55,0,1.09,0.01,1.64
			h16.32C128.06,6.59,128.05,6.05,128.05,5.5z"/>
		<path class="st0" d="M234.52,128.29c0.54,0,1.09,0.01,1.63,0.01v-16.36c-0.54-0.01-1.09-0.01-1.63-0.01c-0.54,0-1.09,0-1.63,0.01
			v16.36C233.43,128.29,233.97,128.29,234.52,128.29z"/>
	</g>
	<g>
		<path class="st1" d="M124.58,51.13c6.02,14.37,14.63,27.28,25.6,38.36s23.74,19.78,37.97,25.86c14.73,6.29,30.37,9.48,46.5,9.48
			c0.5,0,4.85-0.01,5.35-0.01v-1.32c-0.5,0.01-4.85,0.01-5.35,0.01c-65.14,0-118.14-53.54-118.14-119.35c0-0.1,0-4.06,0-4.16
			l-1.31,0c0,0.1,0,4.06,0,4.16C115.2,20.45,118.35,36.26,124.58,51.13z"/>
		<path class="st1" d="M234.65,115.24c-60.63,0-109.85-49.81-109.85-111.06c0-0.1,0-4.07,0-4.17h-1.33c0,0.1,0,4.07,0,4.17
			c0,15.17,2.86,29.87,8.66,43.73c5.6,13.38,13.63,25.41,23.84,35.73c10.22,10.32,22.12,18.43,35.37,24.09
			c13.72,5.86,28.29,8.83,43.31,8.83c0.5,0,4.85-0.01,5.35-0.01v-1.32C239.5,115.23,235.15,115.24,234.65,115.24z"/>
	</g>
</g>
<g>
	<rect class="st2" width="240" height="240"/>
</g>
</svg>
