<?xml version="1.0" encoding="utf-8"?>
<!-- Generator: Adobe Illustrator 23.0.3, SVG Export Plug-In . SVG Version: 6.00 Build 0)  -->
<svg version="1.1" id="Ebene_1" xmlns="http://www.w3.org/2000/svg" xmlns:xlink="http://www.w3.org/1999/xlink" x="0px" y="0px"
	 viewBox="0 0 240 240" style="enable-background:new 0 0 240 240;" xml:space="preserve">
<style type="text/css">
	.st0{fill:#978679;}
	.st1{fill:#3D3D3D;}
	.st2{fill:none;}
</style>
<g>
	<g>
		<path class="st0" d="M157.99,160.4l-11.54-11.57c0.76-0.78,1.53-1.55,2.31-2.31l11.54,11.57
			C159.52,158.85,158.75,159.62,157.99,160.4z"/>
		<path class="st0" d="M135.52,195.24l-15.08-6.26c0.4-1.01,0.82-2.02,1.25-3.02l15.08,6.26
			C136.33,193.22,135.92,194.23,135.52,195.24z"/>
		<path class="st0" d="M192.03,136.8l-6.24-15.12c1-0.43,2-0.85,3.01-1.25l6.24,15.12C194.03,135.94,193.02,136.36,192.03,136.8z"/>
		<path class="st0" d="M129.8,215.29l-16-3.19c0.2-1.07,0.41-2.14,0.63-3.21l16,3.19C130.2,213.14,129.99,214.21,129.8,215.29z"/>
		<path class="st0" d="M173.85,146.92l-9.06-13.61c0.9-0.62,1.8-1.23,2.71-1.82l9.06,13.61
			C175.65,145.69,174.75,146.3,173.85,146.92z"/>
		<path class="st0" d="M145.05,176.71l-13.57-9.09c0.59-0.91,1.2-1.82,1.81-2.72l13.56,9.09
			C146.24,174.89,145.64,175.8,145.05,176.71z"/>
		<path class="st0" d="M211.83,130.44l-3.18-16.05c1.06-0.23,2.13-0.44,3.2-0.63l3.18,16.05C213.95,130,212.89,130.21,211.83,130.44
			z"/>
		<path class="st0" d="M128.44,225.64l-16.24-1.6c0.09-1.09,0.2-2.18,0.32-3.26l16.24,1.6
			C128.64,223.46,128.53,224.55,128.44,225.64z"/>
		<path class="st0" d="M165.59,153.27l-10.35-12.65c0.83-0.7,1.67-1.39,2.52-2.08l10.35,12.65
			C167.26,151.88,166.42,152.57,165.59,153.27z"/>
		<path class="st0" d="M139.83,185.74l-14.39-7.71c0.5-0.97,1.01-1.93,1.54-2.88l14.39,7.71
			C140.84,183.81,140.33,184.77,139.83,185.74z"/>
		<path class="st0" d="M201.77,133.13l-4.74-15.66c1.03-0.33,2.08-0.65,3.12-0.95l4.74,15.66
			C203.84,132.48,202.8,132.79,201.77,133.13z"/>
		<path class="st0" d="M132.16,205.12l-15.61-4.75c0.3-1.05,0.62-2.09,0.95-3.13l15.62,4.75
			C132.78,203.03,132.46,204.07,132.16,205.12z"/>
		<path class="st0" d="M182.69,141.41L175,126.98c0.95-0.53,1.91-1.04,2.88-1.55l7.69,14.43
			C184.6,140.37,183.64,140.88,182.69,141.41z"/>
		<path class="st0" d="M151.12,168.24l-12.61-10.38c0.68-0.85,1.37-1.7,2.07-2.53l12.61,10.38
			C152.49,166.54,151.8,167.39,151.12,168.24z"/>
		<path class="st0" d="M222.1,128.76l-1.6-16.28c1.08-0.12,2.16-0.22,3.25-0.32l1.6,16.28C224.26,128.54,223.18,128.64,222.1,128.76
			z"/>
		<path class="st0" d="M128.05,234.5c0,0.55,0.01,1.09,0.01,1.64h-16.32c-0.01-0.54-0.01-1.09-0.01-1.64c0-0.55,0-1.09,0.01-1.64
			h16.32C128.06,233.41,128.05,233.95,128.05,234.5z"/>
		<path class="st0" d="M234.52,111.71c0.54,0,1.09-0.01,1.63-0.01v16.36c-0.54,0.01-1.09,0.01-1.63,0.01c-0.54,0-1.09,0-1.63-0.01
			V111.7C233.43,111.71,233.97,111.71,234.52,111.71z"/>
	</g>
	<g>
		<path class="st1" d="M124.58,188.87c6.02-14.37,14.63-27.28,25.6-38.36s23.74-19.78,37.97-25.86c14.73-6.29,30.37-9.48,46.5-9.48
			c0.5,0,4.85,0.01,5.35,0.01v1.32c-0.5-0.01-4.85-0.01-5.35-0.01c-65.14,0-118.14,53.54-118.14,119.35c0,0.1,0,4.06,0,4.16h-1.31
			c0-0.1,0-4.06,0-4.16C115.2,219.55,118.35,203.74,124.58,188.87z"/>
		<path class="st1" d="M234.65,124.76c-60.63,0-109.85,49.81-109.85,111.06c0,0.1,0,4.07,0,4.17h-1.33c0-0.1,0-4.07,0-4.17
			c0-15.17,2.86-29.87,8.66-43.73c5.6-13.38,13.63-25.41,23.84-35.73c10.22-10.32,22.12-18.43,35.37-24.09
			c13.72-5.86,28.29-8.83,43.31-8.83c0.5,0,4.85,0.01,5.35,0.01v1.32C239.5,124.77,235.15,124.76,234.65,124.76z"/>
	</g>
</g>
<g>
	<rect class="st2" width="240" height="240"/>
</g>
</svg>
