<?xml version="1.0" encoding="utf-8"?>
<!-- Generator: Adobe Illustrator 23.0.3, SVG Export Plug-In . SVG Version: 6.00 Build 0)  -->
<svg version="1.1" id="Ebene_1" xmlns="http://www.w3.org/2000/svg" xmlns:xlink="http://www.w3.org/1999/xlink" x="0px" y="0px"
	 viewBox="0 0 240 240" style="enable-background:new 0 0 240 240;" xml:space="preserve">
<style type="text/css">
	.st0{fill:#978679;}
	.st1{fill:#3D3D3D;}
	.st2{fill:none;}
</style>
<g>
	<g>
		<rect x="3.87" y="111.7" class="st0" width="3.29" height="16.56"/>
		<rect x="14.88" y="111.7" class="st0" width="3.29" height="16.56"/>
		<rect x="25.9" y="111.7" class="st0" width="3.29" height="16.56"/>
		<rect x="36.92" y="111.7" class="st0" width="3.29" height="16.56"/>
		<rect x="47.93" y="111.7" class="st0" width="3.29" height="16.56"/>
		<rect x="58.95" y="111.7" class="st0" width="3.29" height="16.56"/>
		<rect x="69.97" y="111.7" class="st0" width="3.29" height="16.56"/>
		<rect x="80.99" y="111.7" class="st0" width="3.29" height="16.56"/>
		<rect x="92" y="111.7" class="st0" width="3.29" height="16.56"/>
		<rect x="102.6" y="111.7" class="st0" width="3.29" height="16.56"/>
		<rect x="112.86" y="111.7" class="st0" width="3.29" height="16.56"/>
	</g>
	<g>
		<rect y="123.46" class="st1" width="120" height="1.33"/>
		<rect y="115.18" class="st1" width="120" height="1.33"/>
	</g>
</g>
<g>
	<g>
		<rect x="123.87" y="111.7" class="st0" width="3.29" height="16.56"/>
		<rect x="134.88" y="111.7" class="st0" width="3.29" height="16.56"/>
		<rect x="145.9" y="111.7" class="st0" width="3.29" height="16.56"/>
		<rect x="156.92" y="111.7" class="st0" width="3.29" height="16.56"/>
		<rect x="167.93" y="111.7" class="st0" width="3.29" height="16.56"/>
		<rect x="178.95" y="111.7" class="st0" width="3.29" height="16.56"/>
		<rect x="189.97" y="111.7" class="st0" width="3.29" height="16.56"/>
		<rect x="200.99" y="111.7" class="st0" width="3.29" height="16.56"/>
		<rect x="212" y="111.7" class="st0" width="3.29" height="16.56"/>
		<rect x="222.6" y="111.7" class="st0" width="3.29" height="16.56"/>
		<rect x="232.86" y="111.7" class="st0" width="3.29" height="16.56"/>
	</g>
	<g>
		<rect x="120" y="123.46" class="st1" width="120" height="1.33"/>
		<rect x="120" y="115.18" class="st1" width="120" height="1.33"/>
	</g>
</g>
<g>
	<rect class="st2" width="240" height="240"/>
</g>
</svg>
