<?xml version="1.0" encoding="utf-8"?>
<!-- Generator: Adobe Illustrator 23.0.3, SVG Export Plug-In . SVG Version: 6.00 Build 0)  -->
<svg version="1.1" id="Ebene_1" xmlns="http://www.w3.org/2000/svg" xmlns:xlink="http://www.w3.org/1999/xlink" x="0px" y="0px"
	 viewBox="0 0 240 240" style="enable-background:new 0 0 240 240;" xml:space="preserve">
<style type="text/css">
	.st0{fill:#978679;}
	.st1{fill:#3D3D3D;}
	.st2{fill:none;}
</style>
<g>
	<g>
		<rect x="111.72" y="232.85" class="st0" width="16.56" height="3.29"/>
		<rect x="111.72" y="221.83" class="st0" width="16.56" height="3.29"/>
		<rect x="111.72" y="210.81" class="st0" width="16.56" height="3.29"/>
		<rect x="111.72" y="199.8" class="st0" width="16.56" height="3.29"/>
		<rect x="111.72" y="188.78" class="st0" width="16.56" height="3.29"/>
		<rect x="111.72" y="177.76" class="st0" width="16.56" height="3.29"/>
		<rect x="111.72" y="166.75" class="st0" width="16.56" height="3.29"/>
		<rect x="111.72" y="155.73" class="st0" width="16.56" height="3.29"/>
		<rect x="111.72" y="144.71" class="st0" width="16.56" height="3.29"/>
		<rect x="111.72" y="134.12" class="st0" width="16.56" height="3.29"/>
		<rect x="111.72" y="123.86" class="st0" width="16.56" height="3.29"/>
	</g>
</g>
<g>
	<g>
		<rect x="111.74" y="112.84" class="st0" width="16.56" height="3.29"/>
		<rect x="111.74" y="101.83" class="st0" width="16.56" height="3.29"/>
		<rect x="111.74" y="90.81" class="st0" width="16.56" height="3.29"/>
		<rect x="111.74" y="79.79" class="st0" width="16.56" height="3.29"/>
		<rect x="111.74" y="68.78" class="st0" width="16.56" height="3.29"/>
		<rect x="111.74" y="57.76" class="st0" width="16.56" height="3.29"/>
		<rect x="111.74" y="46.74" class="st0" width="16.56" height="3.29"/>
		<rect x="111.74" y="35.73" class="st0" width="16.56" height="3.29"/>
		<rect x="111.74" y="24.71" class="st0" width="16.56" height="3.29"/>
		<rect x="111.74" y="14.11" class="st0" width="16.56" height="3.29"/>
		<rect x="111.74" y="3.85" class="st0" width="16.56" height="3.29"/>
	</g>
</g>
<g>
	<g>
		<rect x="3.87" y="111.7" class="st0" width="3.29" height="16.56"/>
		<rect x="14.88" y="111.7" class="st0" width="3.29" height="16.56"/>
		<rect x="25.9" y="111.7" class="st0" width="3.29" height="16.56"/>
		<rect x="36.92" y="111.7" class="st0" width="3.29" height="16.56"/>
		<rect x="47.93" y="111.7" class="st0" width="3.29" height="16.56"/>
		<rect x="58.95" y="111.7" class="st0" width="3.29" height="16.56"/>
		<rect x="69.97" y="111.7" class="st0" width="3.29" height="16.56"/>
		<rect x="80.99" y="111.7" class="st0" width="3.29" height="16.56"/>
		<rect x="92" y="111.7" class="st0" width="3.29" height="16.56"/>
		<rect x="102.6" y="111.7" class="st0" width="3.29" height="16.56"/>
		<rect x="112.86" y="111.7" class="st0" width="3.29" height="16.56"/>
	</g>
	<g>
		<rect y="123.46" class="st1" width="120" height="1.33"/>
		<rect y="115.18" class="st1" width="120" height="1.33"/>
	</g>
</g>
<g>
	<g>
		<rect x="123.87" y="111.7" class="st0" width="3.29" height="16.56"/>
		<rect x="134.88" y="111.7" class="st0" width="3.29" height="16.56"/>
		<rect x="145.9" y="111.7" class="st0" width="3.29" height="16.56"/>
		<rect x="156.92" y="111.7" class="st0" width="3.29" height="16.56"/>
		<rect x="167.93" y="111.7" class="st0" width="3.29" height="16.56"/>
		<rect x="178.95" y="111.7" class="st0" width="3.29" height="16.56"/>
		<rect x="189.97" y="111.7" class="st0" width="3.29" height="16.56"/>
		<rect x="200.99" y="111.7" class="st0" width="3.29" height="16.56"/>
		<rect x="212" y="111.7" class="st0" width="3.29" height="16.56"/>
		<rect x="222.6" y="111.7" class="st0" width="3.29" height="16.56"/>
		<rect x="232.86" y="111.7" class="st0" width="3.29" height="16.56"/>
	</g>
	<g>
		<rect x="120" y="123.46" class="st1" width="120" height="1.33"/>
		<rect x="120" y="115.18" class="st1" width="120" height="1.33"/>
	</g>
</g>
<g>
	<rect x="123.48" y="120.01" class="st1" width="1.33" height="119.99"/>
	<rect x="115.19" y="120.01" class="st1" width="1.33" height="119.99"/>
</g>
<g>
	<rect x="123.5" y="0" class="st1" width="1.33" height="119.99"/>
	<rect x="115.22" y="0" class="st1" width="1.33" height="119.99"/>
</g>
<g>
	<rect class="st2" width="240" height="240"/>
</g>
<g>
	<rect class="st2" width="240" height="240"/>
</g>
</svg>
