<?xml version="1.0" encoding="utf-8"?>
<!-- Generator: Adobe Illustrator 23.0.3, SVG Export Plug-In . SVG Version: 6.00 Build 0)  -->
<svg version="1.1" id="Ebene_1" xmlns="http://www.w3.org/2000/svg" xmlns:xlink="http://www.w3.org/1999/xlink" x="0px" y="0px"
	 viewBox="0 0 240 240" style="enable-background:new 0 0 240 240;" xml:space="preserve">
<style type="text/css">
	.st0{fill:#978679;}
	.st1{fill:#3D3D3D;}
	.st2{fill:none;}
</style>
<g>
	<g>
		<path class="st0" d="M160.4,82l-11.57,11.54c-0.78-0.76-1.55-1.53-2.31-2.31l11.57-11.54C158.85,80.48,159.62,81.25,160.4,82z"/>
		<path class="st0" d="M195.25,104.48l-6.26,15.08c-1.01-0.4-2.02-0.82-3.02-1.25l6.26-15.08
			C193.22,103.66,194.23,104.08,195.25,104.48z"/>
		<path class="st0" d="M136.8,47.97l-15.12,6.24c-0.43-1-0.85-2-1.25-3.01l15.12-6.24C135.95,45.97,136.37,46.97,136.8,47.97z"/>
		<path class="st0" d="M215.29,110.2l-3.19,16c-1.07-0.2-2.14-0.41-3.21-0.63l3.19-16C213.15,109.79,214.22,110.01,215.29,110.2z"/>
		<path class="st0" d="M146.92,66.15l-13.61,9.06c-0.62-0.9-1.23-1.8-1.82-2.71l13.61-9.06C145.7,64.35,146.3,65.25,146.92,66.15z"
			/>
		<path class="st0" d="M176.71,94.95l-9.09,13.57c-0.91-0.59-1.82-1.2-2.72-1.81l9.09-13.56C174.89,93.75,175.8,94.36,176.71,94.95z
			"/>
		<path class="st0" d="M130.44,28.17l-16.05,3.18c-0.23-1.06-0.44-2.13-0.63-3.2l16.05-3.18C130,26.04,130.22,27.11,130.44,28.17z"
			/>
		<path class="st0" d="M153.28,74.4l-12.65,10.35c-0.7-0.83-1.39-1.67-2.08-2.52l12.65-10.35C151.88,72.73,152.57,73.57,153.28,74.4
			z"/>
		<path class="st0" d="M185.74,100.17l-7.71,14.39c-0.97-0.5-1.93-1.01-2.88-1.54l7.71-14.39
			C183.81,99.16,184.77,99.67,185.74,100.17z"/>
		<path class="st0" d="M133.13,38.23l-15.66,4.74c-0.33-1.03-0.65-2.08-0.95-3.12l15.66-4.74C132.48,36.15,132.8,37.19,133.13,38.23
			z"/>
		<path class="st0" d="M205.13,107.84l-4.75,15.61c-1.05-0.3-2.09-0.62-3.13-0.95l4.75-15.62
			C203.03,107.22,204.08,107.54,205.13,107.84z"/>
		<path class="st0" d="M141.41,57.31L126.98,65c-0.53-0.95-1.04-1.91-1.55-2.88l14.43-7.69C140.37,55.4,140.88,56.36,141.41,57.31z"
			/>
		<path class="st0" d="M168.24,88.87l-10.38,12.61c-0.85-0.68-1.7-1.37-2.53-2.07l10.38-12.61
			C166.54,87.51,167.39,88.2,168.24,88.87z"/>
		<path class="st0" d="M128.77,17.9l-16.28,1.6c-0.12-1.08-0.22-2.16-0.32-3.25l16.28-1.6C128.54,15.74,128.64,16.82,128.77,17.9z"
			/>
		<path class="st0" d="M234.5,111.94c0.55,0,1.09-0.01,1.64-0.01v16.32c-0.54,0.01-1.09,0.01-1.64,0.01c-0.55,0-1.09,0-1.64-0.01
			v-16.32C233.41,111.94,233.96,111.94,234.5,111.94z"/>
		<path class="st0" d="M111.72,5.48c0-0.54-0.01-1.09-0.01-1.63h16.36c0.01,0.54,0.01,1.09,0.01,1.63c0,0.54,0,1.09-0.01,1.63H111.7
			C111.71,6.57,111.72,6.03,111.72,5.48z"/>
	</g>
	<g>
		<path class="st1" d="M188.87,115.41c-14.37-6.02-27.28-14.63-38.36-25.6c-11.08-10.97-19.78-23.74-25.86-37.97
			c-6.29-14.73-9.48-30.37-9.48-46.5c0-0.5,0.01-4.85,0.01-5.35h1.32c-0.01,0.5-0.01,4.85-0.01,5.35
			c0,65.14,53.54,118.14,119.35,118.14c0.1,0,4.06,0,4.16,0v1.31c-0.1,0-4.06,0-4.16,0C219.55,124.8,203.75,121.64,188.87,115.41z"
			/>
		<path class="st1" d="M124.77,5.35c0,60.63,49.81,109.85,111.06,109.85c0.1,0,4.07,0,4.17,0v1.33c-0.1,0-4.07,0-4.17,0
			c-15.17,0-29.87-2.86-43.73-8.66c-13.38-5.6-25.41-13.63-35.73-23.84c-10.32-10.22-18.43-22.12-24.09-35.37
			c-5.86-13.72-8.83-28.29-8.83-43.31c0-0.5,0.01-4.85,0.01-5.35h1.32C124.77,0.49,124.77,4.85,124.77,5.35z"/>
	</g>
</g>
<g>
	<g>
		<rect x="232.85" y="111.72" class="st0" width="3.29" height="16.56"/>
		<rect x="221.83" y="111.72" class="st0" width="3.29" height="16.56"/>
		<rect x="210.81" y="111.72" class="st0" width="3.29" height="16.56"/>
		<rect x="199.8" y="111.72" class="st0" width="3.29" height="16.56"/>
		<rect x="188.78" y="111.72" class="st0" width="3.29" height="16.56"/>
		<rect x="177.76" y="111.72" class="st0" width="3.29" height="16.56"/>
		<rect x="166.75" y="111.72" class="st0" width="3.29" height="16.56"/>
		<rect x="155.73" y="111.72" class="st0" width="3.29" height="16.56"/>
		<rect x="144.71" y="111.72" class="st0" width="3.29" height="16.56"/>
		<rect x="134.12" y="111.72" class="st0" width="3.29" height="16.56"/>
		<rect x="123.86" y="111.72" class="st0" width="3.29" height="16.56"/>
	</g>
	<g>
		<rect x="120" y="115.19" class="st1" width="119.99" height="1.33"/>
		<rect x="120" y="123.48" class="st1" width="119.99" height="1.33"/>
	</g>
</g>
<g>
	<g>
		<rect x="112.84" y="111.69" class="st0" width="3.29" height="16.56"/>
		<rect x="101.82" y="111.69" class="st0" width="3.29" height="16.56"/>
		<rect x="90.81" y="111.69" class="st0" width="3.29" height="16.56"/>
		<rect x="79.79" y="111.69" class="st0" width="3.29" height="16.56"/>
		<rect x="68.77" y="111.69" class="st0" width="3.29" height="16.56"/>
		<rect x="57.76" y="111.69" class="st0" width="3.29" height="16.56"/>
		<rect x="46.74" y="111.69" class="st0" width="3.29" height="16.56"/>
		<rect x="35.72" y="111.69" class="st0" width="3.29" height="16.56"/>
		<rect x="24.71" y="111.69" class="st0" width="3.29" height="16.56"/>
		<rect x="14.11" y="111.69" class="st0" width="3.29" height="16.56"/>
		<rect x="3.85" y="111.69" class="st0" width="3.29" height="16.56"/>
	</g>
	<g>
		<rect x="0" y="115.17" class="st1" width="119.99" height="1.33"/>
		<rect x="0" y="123.46" class="st1" width="119.99" height="1.33"/>
	</g>
</g>
<g>
	<rect class="st2" width="240" height="240"/>
</g>
</svg>
