<?xml version="1.0" encoding="utf-8"?>
<!-- Generator: Adobe Illustrator 23.0.3, SVG Export Plug-In . SVG Version: 6.00 Build 0)  -->
<svg version="1.1" id="Ebene_1" xmlns="http://www.w3.org/2000/svg" xmlns:xlink="http://www.w3.org/1999/xlink" x="0px" y="0px"
	 viewBox="0 0 240 240" style="enable-background:new 0 0 240 240;" xml:space="preserve">
<style type="text/css">
	.st0{fill:#978679;}
	.st1{fill:#3D3D3D;}
	.st2{fill:none;}
</style>
<g>
	<g>
		<g>
			<path class="st0" d="M82.01,160.4l11.54-11.57c-0.76-0.78-1.53-1.55-2.31-2.31L79.7,158.09
				C80.48,158.85,81.25,159.62,82.01,160.4z"/>
			<path class="st0" d="M104.48,195.24l15.08-6.26c-0.4-1.01-0.82-2.02-1.25-3.02l-15.08,6.26
				C103.67,193.22,104.08,194.23,104.48,195.24z"/>
			<path class="st0" d="M47.97,136.8l6.24-15.12c-1-0.43-2-0.85-3.01-1.25l-6.24,15.12C45.97,135.94,46.98,136.36,47.97,136.8z"/>
			<path class="st0" d="M110.2,215.29l16-3.19c-0.2-1.07-0.41-2.14-0.63-3.21l-16,3.19C109.8,213.14,110.01,214.21,110.2,215.29z"/>
			<path class="st0" d="M66.15,146.92l9.06-13.61c-0.9-0.62-1.8-1.23-2.71-1.82l-9.06,13.61C64.35,145.69,65.25,146.3,66.15,146.92z
				"/>
			<path class="st0" d="M94.95,176.71l13.57-9.09c-0.59-0.91-1.2-1.82-1.81-2.72l-13.56,9.09C93.76,174.89,94.36,175.8,94.95,176.71
				z"/>
			<path class="st0" d="M28.17,130.44l3.18-16.05c-1.06-0.23-2.13-0.44-3.2-0.63l-3.18,16.05C26.05,130,27.11,130.21,28.17,130.44z"
				/>
			<path class="st0" d="M111.24,222.38c0.12,1.08,0.23,2.17,0.31,3.26l16.24-1.6"/>
			<path class="st0" d="M74.41,153.27l10.35-12.65c-0.83-0.7-1.67-1.39-2.52-2.08L71.88,151.2
				C72.74,151.88,73.58,152.57,74.41,153.27z"/>
			<path class="st0" d="M100.17,185.74l14.39-7.71c-0.5-0.97-1.01-1.93-1.54-2.88l-14.39,7.71
				C99.16,183.81,99.67,184.77,100.17,185.74z"/>
			<path class="st0" d="M38.23,133.13l4.74-15.66c-1.03-0.33-2.08-0.65-3.12-0.95l-4.74,15.66
				C36.16,132.48,37.2,132.79,38.23,133.13z"/>
			<path class="st0" d="M107.84,205.12l15.61-4.75c-0.3-1.05-0.62-2.09-0.95-3.13l-15.62,4.75
				C107.22,203.03,107.54,204.07,107.84,205.12z"/>
			<path class="st0" d="M57.31,141.41L65,126.98c-0.95-0.53-1.91-1.04-2.88-1.55l-7.69,14.43C55.4,140.37,56.36,140.88,57.31,141.41
				z"/>
			<path class="st0" d="M88.88,168.24l12.61-10.38c-0.68-0.85-1.37-1.7-2.07-2.53l-12.61,10.38
				C87.51,166.54,88.2,167.39,88.88,168.24z"/>
			<path class="st0" d="M16.25,112.16l-1.6,16.28c1.09,0.09,2.17,0.19,3.25,0.32"/>
			<path class="st0" d="M111.95,234.5c0,0.55-0.01,1.09-0.01,1.64h16.32c0.01-0.54,0.01-1.09,0.01-1.64c0-0.55,0-1.09-0.01-1.64
				h-16.32C111.94,233.41,111.95,233.95,111.95,234.5z"/>
			<path class="st0" d="M5.48,111.71c-0.54,0-1.09-0.01-1.63-0.01v16.36c0.54,0.01,1.09,0.01,1.63,0.01c0.54,0,1.09,0,1.63-0.01
				V111.7C6.57,111.71,6.03,111.71,5.48,111.71z"/>
		</g>
		<g>
			<path class="st1" d="M115.42,188.87c-6.02-14.37-14.63-27.28-25.6-38.36s-23.74-19.78-37.97-25.86
				c-14.73-6.29-30.37-9.48-46.5-9.48c-0.5,0-4.85,0.01-5.35,0.01l0,1.32c0.5-0.01,4.85-0.01,5.35-0.01
				c65.14,0,118.14,53.54,118.14,119.35c0,0.1,0,4.06,0,4.16h1.31c0-0.1,0-4.06,0-4.16C124.8,219.55,121.65,203.74,115.42,188.87z"
				/>
			<path class="st1" d="M5.35,124.76c60.63,0,109.85,49.81,109.85,111.06c0,0.1,0,4.07,0,4.17h1.33c0-0.1,0-4.07,0-4.17
				c0-15.17-2.86-29.87-8.66-43.73c-5.6-13.38-13.63-25.41-23.84-35.73c-10.22-10.32-22.12-18.43-35.37-24.09
				c-13.72-5.86-28.29-8.83-43.31-8.83c-0.5,0-4.85,0.01-5.35,0.01l0,1.32C0.5,124.77,4.85,124.76,5.35,124.76z"/>
		</g>
	</g>
	<g>
		<rect x="111.72" y="232.85" class="st0" width="16.56" height="3.29"/>
		<rect x="111.72" y="221.83" class="st0" width="16.56" height="3.29"/>
		<rect x="111.72" y="210.81" class="st0" width="16.56" height="3.29"/>
		<rect x="111.72" y="199.8" class="st0" width="16.56" height="3.29"/>
		<rect x="111.72" y="188.78" class="st0" width="16.56" height="3.29"/>
		<rect x="111.72" y="177.76" class="st0" width="16.56" height="3.29"/>
		<rect x="111.72" y="166.75" class="st0" width="16.56" height="3.29"/>
		<rect x="111.72" y="155.73" class="st0" width="16.56" height="3.29"/>
		<rect x="111.72" y="144.71" class="st0" width="16.56" height="3.29"/>
		<rect x="111.72" y="134.12" class="st0" width="16.56" height="3.29"/>
		<rect x="111.72" y="123.86" class="st0" width="16.56" height="3.29"/>
	</g>
</g>
<g>
	<g>
		<rect x="111.74" y="112.84" class="st0" width="16.56" height="3.29"/>
		<rect x="111.74" y="101.83" class="st0" width="16.56" height="3.29"/>
		<rect x="111.74" y="90.81" class="st0" width="16.56" height="3.29"/>
		<rect x="111.74" y="79.79" class="st0" width="16.56" height="3.29"/>
		<rect x="111.74" y="68.78" class="st0" width="16.56" height="3.29"/>
		<rect x="111.74" y="57.76" class="st0" width="16.56" height="3.29"/>
		<rect x="111.74" y="46.74" class="st0" width="16.56" height="3.29"/>
		<rect x="111.74" y="35.73" class="st0" width="16.56" height="3.29"/>
		<rect x="111.74" y="24.71" class="st0" width="16.56" height="3.29"/>
		<rect x="111.74" y="14.11" class="st0" width="16.56" height="3.29"/>
		<rect x="111.74" y="3.85" class="st0" width="16.56" height="3.29"/>
	</g>
</g>
<g>
	<g>
		<rect x="3.87" y="111.7" class="st0" width="3.29" height="16.56"/>
		<rect x="14.88" y="111.7" class="st0" width="3.29" height="16.56"/>
		<rect x="25.9" y="111.7" class="st0" width="3.29" height="16.56"/>
		<rect x="36.92" y="111.7" class="st0" width="3.29" height="16.56"/>
		<rect x="47.93" y="111.7" class="st0" width="3.29" height="16.56"/>
		<rect x="58.95" y="111.7" class="st0" width="3.29" height="16.56"/>
		<rect x="69.97" y="111.7" class="st0" width="3.29" height="16.56"/>
		<rect x="80.99" y="111.7" class="st0" width="3.29" height="16.56"/>
		<rect x="92" y="111.7" class="st0" width="3.29" height="16.56"/>
		<rect x="102.6" y="111.7" class="st0" width="3.29" height="16.56"/>
		<rect x="112.86" y="111.7" class="st0" width="3.29" height="16.56"/>
	</g>
	<g>
		<rect y="123.46" class="st1" width="120" height="1.33"/>
		<rect y="115.18" class="st1" width="120" height="1.33"/>
	</g>
</g>
<g>
	<g>
		<rect x="123.87" y="111.7" class="st0" width="3.29" height="16.56"/>
		<rect x="134.88" y="111.7" class="st0" width="3.29" height="16.56"/>
		<rect x="145.9" y="111.7" class="st0" width="3.29" height="16.56"/>
		<rect x="156.92" y="111.7" class="st0" width="3.29" height="16.56"/>
		<rect x="167.93" y="111.7" class="st0" width="3.29" height="16.56"/>
		<rect x="178.95" y="111.7" class="st0" width="3.29" height="16.56"/>
		<rect x="189.97" y="111.7" class="st0" width="3.29" height="16.56"/>
		<rect x="200.99" y="111.7" class="st0" width="3.29" height="16.56"/>
		<rect x="212" y="111.7" class="st0" width="3.29" height="16.56"/>
		<rect x="222.6" y="111.7" class="st0" width="3.29" height="16.56"/>
		<rect x="232.86" y="111.7" class="st0" width="3.29" height="16.56"/>
	</g>
	<g>
		<rect x="120" y="123.46" class="st1" width="120" height="1.33"/>
		<rect x="120" y="115.18" class="st1" width="120" height="1.33"/>
	</g>
</g>
<g>
	<rect x="123.48" y="120.01" class="st1" width="1.33" height="119.99"/>
	<rect x="115.19" y="120.01" class="st1" width="1.33" height="119.99"/>
</g>
<g>
	<rect x="123.5" y="0" class="st1" width="1.33" height="119.99"/>
	<rect x="115.22" y="0" class="st1" width="1.33" height="119.99"/>
</g>
<g>
	<rect class="st2" width="240" height="240"/>
</g>
<g>
	<rect class="st2" width="240" height="240"/>
</g>
</svg>
