<?xml version="1.0" encoding="utf-8"?>
<!-- Generator: Adobe Illustrator 23.0.3, SVG Export Plug-In . SVG Version: 6.00 Build 0)  -->
<svg version="1.1" id="Ebene_1" xmlns="http://www.w3.org/2000/svg" xmlns:xlink="http://www.w3.org/1999/xlink" x="0px" y="0px"
	 viewBox="0 0 240 240" style="enable-background:new 0 0 240 240;" xml:space="preserve">
<style type="text/css">
	.st0{fill:#978679;}
	.st1{fill:#3D3D3D;}
	.st2{fill:none;}
</style>
<g>
	<g>
		<path class="st0" d="M79.6,157.99l11.57-11.54c0.78,0.76,1.55,1.53,2.31,2.31L81.91,160.3C81.15,159.52,80.38,158.75,79.6,157.99z
			"/>
		<path class="st0" d="M44.75,135.51l6.26-15.08c1.01,0.4,2.02,0.82,3.02,1.25l-6.26,15.08C46.78,136.33,45.77,135.91,44.75,135.51z
			"/>
		<path class="st0" d="M103.2,192.02l15.12-6.24c0.43,1,0.85,2,1.25,3.01l-15.12,6.24C104.05,194.02,103.63,193.02,103.2,192.02z"/>
		<path class="st0" d="M24.71,129.79l3.19-16c1.07,0.2,2.14,0.41,3.21,0.63l-3.19,16C26.85,130.2,25.78,129.99,24.71,129.79z"/>
		<path class="st0" d="M93.08,173.85l13.61-9.06c0.62,0.9,1.23,1.8,1.82,2.71l-13.61,9.06C94.3,175.65,93.7,174.74,93.08,173.85z"/>
		<path class="st0" d="M63.29,145.04l9.09-13.57c0.91,0.59,1.82,1.2,2.72,1.81l-9.09,13.56C65.11,146.24,64.2,145.64,63.29,145.04z"
			/>
		<path class="st0" d="M109.56,211.82l16.05-3.18c0.23,1.06,0.44,2.13,0.63,3.2l-16.05,3.18C110,213.95,109.78,212.88,109.56,211.82
			z"/>
		<path class="st0" d="M86.72,165.59l12.65-10.35c0.7,0.83,1.39,1.67,2.08,2.52L88.8,168.11C88.12,167.26,87.43,166.42,86.72,165.59
			z"/>
		<path class="st0" d="M54.26,139.82l7.71-14.39c0.97,0.5,1.93,1.01,2.88,1.54l-7.71,14.39C56.19,140.84,55.23,140.32,54.26,139.82z
			"/>
		<path class="st0" d="M106.87,201.77l15.66-4.74c0.33,1.03,0.65,2.08,0.95,3.12l-15.66,4.74
			C107.52,203.84,107.2,202.8,106.87,201.77z"/>
		<path class="st0" d="M34.87,132.16l4.75-15.61c1.05,0.3,2.09,0.62,3.13,0.95L38,133.1C36.97,132.77,35.92,132.46,34.87,132.16z"/>
		<path class="st0" d="M98.59,182.69l14.43-7.69c0.53,0.95,1.04,1.91,1.55,2.88l-14.43,7.69C99.63,184.6,99.12,183.64,98.59,182.69z
			"/>
		<path class="st0" d="M71.76,151.12l10.38-12.61c0.85,0.68,1.7,1.37,2.53,2.07l-10.38,12.61C73.46,152.49,72.61,151.8,71.76,151.12
			z"/>
		<path class="st0" d="M111.23,222.1l16.28-1.6c0.12,1.08,0.22,2.16,0.32,3.25l-16.28,1.6C111.46,224.26,111.36,223.17,111.23,222.1
			z"/>
		<path class="st0" d="M5.5,128.05c-0.55,0-1.09,0.01-1.64,0.01v-16.32c0.54-0.01,1.09-0.01,1.64-0.01c0.55,0,1.09,0,1.64,0.01
			v16.32C6.59,128.05,6.04,128.05,5.5,128.05z"/>
		<path class="st0" d="M128.28,234.51c0,0.54,0.01,1.09,0.01,1.63h-16.36c-0.01-0.54-0.01-1.09-0.01-1.63c0-0.54,0-1.09,0.01-1.63
			h16.36C128.29,233.42,128.28,233.97,128.28,234.51z"/>
	</g>
	<g>
		<path class="st1" d="M51.13,124.58c14.37,6.02,27.28,14.63,38.36,25.6c11.08,10.97,19.78,23.74,25.86,37.97
			c6.29,14.73,9.48,30.37,9.48,46.5c0,0.5-0.01,4.85-0.01,5.35h-1.32c0.01-0.5,0.01-4.85,0.01-5.35
			c0-65.14-53.54-118.14-119.35-118.14c-0.1,0-4.06,0-4.16,0v-1.31c0.1,0,4.06,0,4.16,0C20.45,115.19,36.25,118.35,51.13,124.58z"/>
		<path class="st1" d="M115.23,234.65c0-60.63-49.81-109.85-111.06-109.85c-0.1,0-4.07,0-4.17,0v-1.33c0.1,0,4.07,0,4.17,0
			c15.17,0,29.87,2.86,43.73,8.66c13.38,5.6,25.41,13.63,35.73,23.84c10.32,10.22,18.43,22.12,24.09,35.37
			c5.86,13.72,8.83,28.29,8.83,43.31c0,0.5-0.01,4.85-0.01,5.35h-1.32C115.23,239.5,115.23,235.15,115.23,234.65z"/>
	</g>
</g>
<g>
	<g>
		<rect x="3.87" y="111.72" class="st0" width="3.29" height="16.56"/>
		<rect x="14.89" y="111.72" class="st0" width="3.29" height="16.56"/>
		<rect x="25.9" y="111.72" class="st0" width="3.29" height="16.56"/>
		<rect x="36.92" y="111.72" class="st0" width="3.29" height="16.56"/>
		<rect x="47.94" y="111.72" class="st0" width="3.29" height="16.56"/>
		<rect x="58.95" y="111.72" class="st0" width="3.29" height="16.56"/>
		<rect x="69.97" y="111.72" class="st0" width="3.29" height="16.56"/>
		<rect x="80.99" y="111.72" class="st0" width="3.29" height="16.56"/>
		<rect x="92" y="111.72" class="st0" width="3.29" height="16.56"/>
		<rect x="102.6" y="111.72" class="st0" width="3.29" height="16.56"/>
		<rect x="112.86" y="111.72" class="st0" width="3.29" height="16.56"/>
	</g>
	<g>
		<rect x="0" y="123.48" class="st1" width="119.99" height="1.33"/>
		<rect x="0" y="115.19" class="st1" width="119.99" height="1.33"/>
	</g>
</g>
<g>
	<g>
		<rect x="123.87" y="111.74" class="st0" width="3.29" height="16.56"/>
		<rect x="134.89" y="111.74" class="st0" width="3.29" height="16.56"/>
		<rect x="145.91" y="111.74" class="st0" width="3.29" height="16.56"/>
		<rect x="156.92" y="111.74" class="st0" width="3.29" height="16.56"/>
		<rect x="167.94" y="111.74" class="st0" width="3.29" height="16.56"/>
		<rect x="178.96" y="111.74" class="st0" width="3.29" height="16.56"/>
		<rect x="189.97" y="111.74" class="st0" width="3.29" height="16.56"/>
		<rect x="200.99" y="111.74" class="st0" width="3.29" height="16.56"/>
		<rect x="212.01" y="111.74" class="st0" width="3.29" height="16.56"/>
		<rect x="222.6" y="111.74" class="st0" width="3.29" height="16.56"/>
		<rect x="232.86" y="111.74" class="st0" width="3.29" height="16.56"/>
	</g>
	<g>
		<rect x="120.01" y="123.5" class="st1" width="119.99" height="1.33"/>
		<rect x="120.01" y="115.21" class="st1" width="119.99" height="1.33"/>
	</g>
</g>
<g>
	<rect class="st2" width="240" height="240"/>
</g>
</svg>
