<?xml version="1.0" encoding="utf-8"?>
<!-- Generator: Adobe Illustrator 23.0.3, SVG Export Plug-In . SVG Version: 6.00 Build 0)  -->
<svg version="1.1" id="Ebene_1" xmlns="http://www.w3.org/2000/svg" xmlns:xlink="http://www.w3.org/1999/xlink" x="0px" y="0px"
	 viewBox="0 0 240 240" style="enable-background:new 0 0 240 240;" xml:space="preserve">
<style type="text/css">
	.st0{fill:#978679;}
	.st1{fill:#3D3D3D;}
	.st2{fill:none;}
</style>
<g>
	<g>
		<path class="st0" d="M82.01,79.6l11.54,11.57c-0.76,0.78-1.53,1.55-2.31,2.31L79.7,81.91C80.48,81.15,81.25,80.38,82.01,79.6z"/>
		<path class="st0" d="M104.48,44.76l15.08,6.26c-0.4,1.01-0.82,2.02-1.25,3.02l-15.08-6.26C103.67,46.78,104.08,45.77,104.48,44.76
			z"/>
		<path class="st0" d="M47.97,103.2l6.24,15.12c-1,0.43-2,0.85-3.01,1.25l-6.24-15.12C45.97,104.06,46.98,103.64,47.97,103.2z"/>
		<path class="st0" d="M110.2,24.71l16,3.19c-0.2,1.07-0.41,2.14-0.63,3.21l-16-3.19C109.8,26.86,110.01,25.79,110.2,24.71z"/>
		<path class="st0" d="M66.15,93.08l9.06,13.61c-0.9,0.62-1.8,1.23-2.71,1.82L63.44,94.9C64.35,94.31,65.25,93.7,66.15,93.08z"/>
		<path class="st0" d="M94.95,63.29l13.57,9.09c-0.59,0.91-1.2,1.82-1.81,2.72l-13.56-9.09C93.76,65.11,94.36,64.2,94.95,63.29z"/>
		<path class="st0" d="M28.17,109.56l3.18,16.05c-1.06,0.23-2.13,0.44-3.2,0.63l-3.18-16.05C26.05,110,27.11,109.79,28.17,109.56z"
			/>
		<path class="st0" d="M74.41,86.73l10.35,12.65c-0.83,0.7-1.67,1.39-2.52,2.08L71.88,88.8C72.74,88.12,73.58,87.43,74.41,86.73z"/>
		<path class="st0" d="M100.17,54.26l14.39,7.71c-0.5,0.97-1.01,1.93-1.54,2.88l-14.39-7.71C99.16,56.19,99.67,55.23,100.17,54.26z"
			/>
		<path class="st0" d="M38.23,106.87l4.74,15.66c-1.03,0.33-2.08,0.65-3.12,0.95l-4.74-15.66C36.16,107.52,37.2,107.21,38.23,106.87
			z"/>
		<path class="st0" d="M107.84,34.88l15.61,4.75c-0.3,1.05-0.62,2.09-0.95,3.13l-15.62-4.75C107.22,36.97,107.54,35.93,107.84,34.88
			z"/>
		<path class="st0" d="M57.31,98.59L65,113.02c-0.95,0.53-1.91,1.04-2.88,1.55l-7.69-14.43C55.4,99.63,56.36,99.12,57.31,98.59z"/>
		<path class="st0" d="M88.88,71.76l12.61,10.38c-0.68,0.85-1.37,1.7-2.07,2.53L86.81,74.29C87.51,73.46,88.2,72.61,88.88,71.76z"/>
		<path class="st0" d="M17.9,111.24l1.6,16.28c-1.08,0.12-2.16,0.22-3.25,0.32l-1.6-16.28C15.74,111.46,16.82,111.36,17.9,111.24z"
			/>
		<path class="st0" d="M111.95,5.5c0-0.55-0.01-1.09-0.01-1.64h16.32c0.01,0.54,0.01,1.09,0.01,1.64c0,0.55,0,1.09-0.01,1.64h-16.32
			C111.94,6.59,111.95,6.05,111.95,5.5z"/>
		<path class="st0" d="M5.48,128.29c-0.54,0-1.09,0.01-1.63,0.01v-16.36c0.54-0.01,1.09-0.01,1.63-0.01c0.54,0,1.09,0,1.63,0.01
			v16.36C6.57,128.29,6.03,128.29,5.48,128.29z"/>
	</g>
	<g>
		<path class="st1" d="M115.42,51.13c-6.02,14.37-14.63,27.28-25.6,38.36s-23.74,19.78-37.97,25.86
			c-14.73,6.29-30.37,9.48-46.5,9.48c-0.5,0-4.85-0.01-5.35-0.01l0-1.32c0.5,0.01,4.85,0.01,5.35,0.01
			c65.14,0,118.14-53.54,118.14-119.35c0-0.1,0-4.06,0-4.16l1.31,0c0,0.1,0,4.06,0,4.16C124.8,20.45,121.65,36.26,115.42,51.13z"/>
		<path class="st1" d="M5.35,115.24c60.63,0,109.85-49.81,109.85-111.06c0-0.1,0-4.07,0-4.17h1.33c0,0.1,0,4.07,0,4.17
			c0,15.17-2.86,29.87-8.66,43.73c-5.6,13.38-13.63,25.41-23.84,35.73c-10.22,10.32-22.12,18.43-35.37,24.09
			c-13.72,5.86-28.29,8.83-43.31,8.83c-0.5,0-4.85-0.01-5.35-0.01l0-1.32C0.5,115.23,4.85,115.24,5.35,115.24z"/>
	</g>
</g>
<g>
	<g>
		<rect x="111.72" y="3.87" class="st0" width="16.56" height="3.29"/>
		<rect x="111.72" y="14.89" class="st0" width="16.56" height="3.29"/>
		<rect x="111.72" y="25.9" class="st0" width="16.56" height="3.29"/>
		<rect x="111.72" y="36.92" class="st0" width="16.56" height="3.29"/>
		<rect x="111.72" y="47.94" class="st0" width="16.56" height="3.29"/>
		<rect x="111.72" y="58.95" class="st0" width="16.56" height="3.29"/>
		<rect x="111.72" y="69.97" class="st0" width="16.56" height="3.29"/>
		<rect x="111.72" y="80.99" class="st0" width="16.56" height="3.29"/>
		<rect x="111.72" y="92" class="st0" width="16.56" height="3.29"/>
		<rect x="111.72" y="102.6" class="st0" width="16.56" height="3.29"/>
		<rect x="111.72" y="112.86" class="st0" width="16.56" height="3.29"/>
	</g>
	<g>
		<rect x="115.19" y="0.01" class="st1" width="1.33" height="119.99"/>
		<rect x="123.48" y="0.01" class="st1" width="1.33" height="119.99"/>
	</g>
</g>
<g>
	<g>
		<rect x="111.7" y="123.88" class="st0" width="16.56" height="3.29"/>
		<rect x="111.7" y="134.89" class="st0" width="16.56" height="3.29"/>
		<rect x="111.7" y="145.91" class="st0" width="16.56" height="3.29"/>
		<rect x="111.7" y="156.93" class="st0" width="16.56" height="3.29"/>
		<rect x="111.7" y="167.94" class="st0" width="16.56" height="3.29"/>
		<rect x="111.7" y="178.96" class="st0" width="16.56" height="3.29"/>
		<rect x="111.7" y="189.98" class="st0" width="16.56" height="3.29"/>
		<rect x="111.7" y="200.99" class="st0" width="16.56" height="3.29"/>
		<rect x="111.7" y="212.01" class="st0" width="16.56" height="3.29"/>
		<rect x="111.7" y="222.61" class="st0" width="16.56" height="3.29"/>
		<rect x="111.7" y="232.87" class="st0" width="16.56" height="3.29"/>
	</g>
	<g>
		<rect x="115.17" y="120.01" class="st1" width="1.33" height="119.99"/>
		<rect x="123.46" y="120.01" class="st1" width="1.33" height="119.99"/>
	</g>
</g>
<g>
	<rect class="st2" width="240" height="240"/>
</g>
</svg>
