<?xml version="1.0" encoding="utf-8"?>
<!-- Generator: Adobe Illustrator 23.0.3, SVG Export Plug-In . SVG Version: 6.00 Build 0)  -->
<svg version="1.1" id="Ebene_1" xmlns="http://www.w3.org/2000/svg" xmlns:xlink="http://www.w3.org/1999/xlink" x="0px" y="0px"
	 viewBox="0 0 240 240" style="enable-background:new 0 0 240 240;" xml:space="preserve">
<style type="text/css">
	.st0{fill:#978679;}
	.st1{fill:#3D3D3D;}
	.st2{fill:none;}
</style>
<g>
	<g>
		<path class="st0" d="M160.4,157.99l-11.57-11.54c-0.78,0.76-1.55,1.53-2.31,2.31l11.57,11.54
			C158.85,159.52,159.62,158.75,160.4,157.99z"/>
		<path class="st0" d="M195.25,135.51l-6.26-15.08c-1.01,0.4-2.02,0.82-3.02,1.25l6.26,15.08
			C193.22,136.33,194.23,135.91,195.25,135.51z"/>
		<path class="st0" d="M136.8,192.02l-15.12-6.24c-0.43,1-0.85,2-1.25,3.01l15.12,6.24C135.95,194.02,136.37,193.02,136.8,192.02z"
			/>
		<path class="st0" d="M215.29,129.79l-3.19-16c-1.07,0.2-2.14,0.41-3.21,0.63l3.19,16C213.15,130.2,214.22,129.99,215.29,129.79z"
			/>
		<path class="st0" d="M146.92,173.85l-13.61-9.06c-0.62,0.9-1.23,1.8-1.82,2.71l13.61,9.06
			C145.7,175.65,146.3,174.74,146.92,173.85z"/>
		<path class="st0" d="M176.71,145.04l-9.09-13.57c-0.91,0.59-1.82,1.2-2.72,1.81l9.09,13.56
			C174.89,146.24,175.8,145.64,176.71,145.04z"/>
		<path class="st0" d="M130.44,211.82l-16.05-3.18c-0.23,1.06-0.44,2.13-0.63,3.2l16.05,3.18
			C130,213.95,130.22,212.88,130.44,211.82z"/>
		<path class="st0" d="M153.28,165.59l-12.65-10.35c-0.7,0.83-1.39,1.67-2.08,2.52l12.65,10.35
			C151.88,167.26,152.57,166.42,153.28,165.59z"/>
		<path class="st0" d="M185.74,139.82l-7.71-14.39c-0.97,0.5-1.93,1.01-2.88,1.54l7.71,14.39
			C183.81,140.84,184.77,140.32,185.74,139.82z"/>
		<path class="st0" d="M133.13,201.77l-15.66-4.74c-0.33,1.03-0.65,2.08-0.95,3.12l15.66,4.74
			C132.48,203.84,132.8,202.8,133.13,201.77z"/>
		<path class="st0" d="M205.13,132.16l-4.75-15.61c-1.05,0.3-2.09,0.62-3.13,0.95L202,133.1
			C203.03,132.77,204.08,132.46,205.13,132.16z"/>
		<path class="st0" d="M141.41,182.69L126.98,175c-0.53,0.95-1.04,1.91-1.55,2.88l14.43,7.69
			C140.37,184.6,140.88,183.64,141.41,182.69z"/>
		<path class="st0" d="M168.24,151.12l-10.38-12.61c-0.85,0.68-1.7,1.37-2.53,2.07l10.38,12.61
			C166.54,152.49,167.39,151.8,168.24,151.12z"/>
		<path class="st0" d="M128.77,222.1l-16.28-1.6c-0.12,1.08-0.22,2.16-0.32,3.25l16.28,1.6
			C128.54,224.26,128.64,223.17,128.77,222.1z"/>
		<path class="st0" d="M234.5,128.05c0.55,0,1.09,0.01,1.64,0.01v-16.32c-0.54-0.01-1.09-0.01-1.64-0.01c-0.55,0-1.09,0-1.64,0.01
			v16.32C233.41,128.05,233.96,128.05,234.5,128.05z"/>
		<path class="st0" d="M111.72,234.51c0,0.54-0.01,1.09-0.01,1.63h16.36c0.01-0.54,0.01-1.09,0.01-1.63c0-0.54,0-1.09-0.01-1.63
			H111.7C111.71,233.42,111.72,233.97,111.72,234.51z"/>
	</g>
	<g>
		<path class="st1" d="M188.87,124.58c-14.37,6.02-27.28,14.63-38.36,25.6c-11.08,10.97-19.78,23.74-25.86,37.97
			c-6.29,14.73-9.48,30.37-9.48,46.5c0,0.5,0.01,4.85,0.01,5.35h1.32c-0.01-0.5-0.01-4.85-0.01-5.35
			c0-65.14,53.54-118.14,119.35-118.14c0.1,0,4.06,0,4.16,0v-1.31c-0.1,0-4.06,0-4.16,0C219.55,115.19,203.75,118.35,188.87,124.58z
			"/>
		<path class="st1" d="M124.77,234.65c0-60.63,49.81-109.85,111.06-109.85c0.1,0,4.07,0,4.17,0v-1.33c-0.1,0-4.07,0-4.17,0
			c-15.17,0-29.87,2.86-43.73,8.66c-13.38,5.6-25.41,13.63-35.73,23.84c-10.32,10.22-18.43,22.12-24.09,35.37
			c-5.86,13.72-8.83,28.29-8.83,43.31c0,0.5,0.01,4.85,0.01,5.35h1.32C124.77,239.5,124.77,235.15,124.77,234.65z"/>
	</g>
</g>
<g>
	<g>
		<rect x="232.85" y="111.72" class="st0" width="3.29" height="16.56"/>
		<rect x="221.83" y="111.72" class="st0" width="3.29" height="16.56"/>
		<rect x="210.81" y="111.72" class="st0" width="3.29" height="16.56"/>
		<rect x="199.8" y="111.72" class="st0" width="3.29" height="16.56"/>
		<rect x="188.78" y="111.72" class="st0" width="3.29" height="16.56"/>
		<rect x="177.76" y="111.72" class="st0" width="3.29" height="16.56"/>
		<rect x="166.75" y="111.72" class="st0" width="3.29" height="16.56"/>
		<rect x="155.73" y="111.72" class="st0" width="3.29" height="16.56"/>
		<rect x="144.71" y="111.72" class="st0" width="3.29" height="16.56"/>
		<rect x="134.12" y="111.72" class="st0" width="3.29" height="16.56"/>
		<rect x="123.86" y="111.72" class="st0" width="3.29" height="16.56"/>
	</g>
	<g>
		<rect x="120" y="123.48" class="st1" width="119.99" height="1.33"/>
		<rect x="120" y="115.19" class="st1" width="119.99" height="1.33"/>
	</g>
</g>
<g>
	<g>
		<rect x="112.84" y="111.74" class="st0" width="3.29" height="16.56"/>
		<rect x="101.82" y="111.74" class="st0" width="3.29" height="16.56"/>
		<rect x="90.81" y="111.74" class="st0" width="3.29" height="16.56"/>
		<rect x="79.79" y="111.74" class="st0" width="3.29" height="16.56"/>
		<rect x="68.77" y="111.74" class="st0" width="3.29" height="16.56"/>
		<rect x="57.76" y="111.74" class="st0" width="3.29" height="16.56"/>
		<rect x="46.74" y="111.74" class="st0" width="3.29" height="16.56"/>
		<rect x="35.72" y="111.74" class="st0" width="3.29" height="16.56"/>
		<rect x="24.71" y="111.74" class="st0" width="3.29" height="16.56"/>
		<rect x="14.11" y="111.74" class="st0" width="3.29" height="16.56"/>
		<rect x="3.85" y="111.74" class="st0" width="3.29" height="16.56"/>
	</g>
	<g>
		<rect x="0" y="123.5" class="st1" width="119.99" height="1.33"/>
		<rect x="0" y="115.21" class="st1" width="119.99" height="1.33"/>
	</g>
</g>
<g>
	<rect class="st2" width="240" height="240"/>
</g>
</svg>
