<?xml version="1.0" encoding="utf-8"?>
<!-- Generator: Adobe Illustrator 23.0.3, SVG Export Plug-In . SVG Version: 6.00 Build 0)  -->
<svg version="1.1" id="Ebene_1" xmlns="http://www.w3.org/2000/svg" xmlns:xlink="http://www.w3.org/1999/xlink" x="0px" y="0px"
	 viewBox="0 0 240 240" style="enable-background:new 0 0 240 240;" xml:space="preserve">
<style type="text/css">
	.st0{fill:#978679;}
	.st1{fill:#3D3D3D;}
	.st2{fill:none;}
</style>
<g>
	<g>
		<path class="st0" d="M79.6,82l11.57,11.54c0.78-0.76,1.55-1.53,2.31-2.31L81.91,79.7C81.15,80.48,80.38,81.25,79.6,82z"/>
		<path class="st0" d="M44.75,104.48l6.26,15.08c1.01-0.4,2.02-0.82,3.02-1.25l-6.26-15.08C46.78,103.66,45.77,104.08,44.75,104.48z
			"/>
		<path class="st0" d="M103.2,47.97l15.12,6.24c0.43-1,0.85-2,1.25-3.01l-15.12-6.24C104.05,45.97,103.63,46.97,103.2,47.97z"/>
		<path class="st0" d="M24.71,110.2l3.19,16c1.07-0.2,2.14-0.41,3.21-0.63l-3.19-16C26.85,109.79,25.78,110.01,24.71,110.2z"/>
		<path class="st0" d="M93.08,66.15l13.61,9.06c0.62-0.9,1.23-1.8,1.82-2.71L94.9,63.43C94.3,64.35,93.7,65.25,93.08,66.15z"/>
		<path class="st0" d="M63.29,94.95l9.09,13.57c0.91-0.59,1.82-1.2,2.72-1.81l-9.09-13.56C65.11,93.75,64.2,94.36,63.29,94.95z"/>
		<path class="st0" d="M109.56,28.17l16.05,3.18c0.23-1.06,0.44-2.13,0.63-3.2l-16.05-3.18C110,26.04,109.78,27.11,109.56,28.17z"/>
		<path class="st0" d="M86.72,74.4l12.65,10.35c0.7-0.83,1.39-1.67,2.08-2.52L88.8,71.88C88.12,72.73,87.43,73.57,86.72,74.4z"/>
		<path class="st0" d="M54.26,100.17l7.71,14.39c0.97-0.5,1.93-1.01,2.88-1.54l-7.71-14.39C56.19,99.16,55.23,99.67,54.26,100.17z"
			/>
		<path class="st0" d="M106.87,38.23l15.66,4.74c0.33-1.03,0.65-2.08,0.95-3.12l-15.66-4.74C107.52,36.15,107.2,37.19,106.87,38.23z
			"/>
		<path class="st0" d="M34.87,107.84l4.75,15.61c1.05-0.3,2.09-0.62,3.13-0.95L38,106.89C36.97,107.22,35.92,107.54,34.87,107.84z"
			/>
		<path class="st0" d="M98.59,57.31L113.02,65c0.53-0.95,1.04-1.91,1.55-2.88l-14.43-7.69C99.63,55.4,99.12,56.36,98.59,57.31z"/>
		<path class="st0" d="M71.76,88.87l10.38,12.61c0.85-0.68,1.7-1.37,2.53-2.07L74.29,86.8C73.46,87.51,72.61,88.2,71.76,88.87z"/>
		<path class="st0" d="M111.23,17.9l16.28,1.6c0.12-1.08,0.22-2.16,0.32-3.25l-16.28-1.6C111.46,15.74,111.36,16.82,111.23,17.9z"/>
		<path class="st0" d="M5.5,111.94c-0.55,0-1.09-0.01-1.64-0.01v16.32c0.54,0.01,1.09,0.01,1.64,0.01c0.55,0,1.09,0,1.64-0.01
			v-16.32C6.59,111.94,6.04,111.94,5.5,111.94z"/>
		<path class="st0" d="M128.28,5.48c0-0.54,0.01-1.09,0.01-1.63h-16.36c-0.01,0.54-0.01,1.09-0.01,1.63c0,0.54,0,1.09,0.01,1.63
			h16.36C128.29,6.57,128.28,6.03,128.28,5.48z"/>
	</g>
	<g>
		<path class="st1" d="M51.13,115.41c14.37-6.02,27.28-14.63,38.36-25.6s19.78-23.74,25.86-37.97c6.29-14.73,9.48-30.37,9.48-46.5
			c0-0.5-0.01-4.85-0.01-5.35h-1.32c0.01,0.5,0.01,4.85,0.01,5.35c0,65.14-53.54,118.14-119.35,118.14c-0.1,0-4.06,0-4.16,0v1.31
			c0.1,0,4.06,0,4.16,0C20.45,124.8,36.25,121.64,51.13,115.41z"/>
		<path class="st1" d="M115.23,5.35c0,60.63-49.81,109.85-111.06,109.85c-0.1,0-4.07,0-4.17,0v1.33c0.1,0,4.07,0,4.17,0
			c15.17,0,29.87-2.86,43.73-8.66c13.38-5.6,25.41-13.63,35.73-23.84c10.32-10.22,18.43-22.12,24.09-35.37
			c5.86-13.72,8.83-28.29,8.83-43.31c0-0.5-0.01-4.85-0.01-5.35h-1.32C115.23,0.49,115.23,4.85,115.23,5.35z"/>
	</g>
</g>
<g>
	<g>
		<rect x="3.87" y="111.72" class="st0" width="3.29" height="16.56"/>
		<rect x="14.89" y="111.72" class="st0" width="3.29" height="16.56"/>
		<rect x="25.9" y="111.72" class="st0" width="3.29" height="16.56"/>
		<rect x="36.92" y="111.72" class="st0" width="3.29" height="16.56"/>
		<rect x="47.94" y="111.72" class="st0" width="3.29" height="16.56"/>
		<rect x="58.95" y="111.72" class="st0" width="3.29" height="16.56"/>
		<rect x="69.97" y="111.72" class="st0" width="3.29" height="16.56"/>
		<rect x="80.99" y="111.72" class="st0" width="3.29" height="16.56"/>
		<rect x="92" y="111.72" class="st0" width="3.29" height="16.56"/>
		<rect x="102.6" y="111.72" class="st0" width="3.29" height="16.56"/>
		<rect x="112.86" y="111.72" class="st0" width="3.29" height="16.56"/>
	</g>
	<g>
		<rect x="0" y="115.19" class="st1" width="119.99" height="1.33"/>
		<rect x="0" y="123.48" class="st1" width="119.99" height="1.33"/>
	</g>
</g>
<g>
	<g>
		<rect x="123.87" y="111.69" class="st0" width="3.29" height="16.56"/>
		<rect x="134.89" y="111.69" class="st0" width="3.29" height="16.56"/>
		<rect x="145.91" y="111.69" class="st0" width="3.29" height="16.56"/>
		<rect x="156.92" y="111.69" class="st0" width="3.29" height="16.56"/>
		<rect x="167.94" y="111.69" class="st0" width="3.29" height="16.56"/>
		<rect x="178.96" y="111.69" class="st0" width="3.29" height="16.56"/>
		<rect x="189.97" y="111.69" class="st0" width="3.29" height="16.56"/>
		<rect x="200.99" y="111.69" class="st0" width="3.29" height="16.56"/>
		<rect x="212.01" y="111.69" class="st0" width="3.29" height="16.56"/>
		<rect x="222.6" y="111.69" class="st0" width="3.29" height="16.56"/>
		<rect x="232.86" y="111.69" class="st0" width="3.29" height="16.56"/>
	</g>
	<g>
		<rect x="120.01" y="115.17" class="st1" width="119.99" height="1.33"/>
		<rect x="120.01" y="123.46" class="st1" width="119.99" height="1.33"/>
	</g>
</g>
<g>
	<rect class="st2" width="240" height="240"/>
</g>
</svg>
